<svg width="129" height="19" viewBox="0 0 129 19" fill="none" xmlns="http://www.w3.org/2000/svg">
<path d="M12.6815 7.03045L10.1007 0L7.51991 7.03045H0L5.82904 11.7026L3.7822 19L10.1452 14.7283L16.5082 19L14.4169 11.7026L20.2459 7.03045H12.6815Z" fill="#8F5200"/>
<path d="M39.6815 7.03045L37.1007 0L34.5199 7.03045H27L32.829 11.7026L30.7822 19L37.1452 14.7283L43.5082 19L41.4169 11.7026L47.2459 7.03045H39.6815Z" fill="#8F5200"/>
<path d="M66.6815 7.03045L64.1007 0L61.5199 7.03045H54L59.829 11.7026L57.7822 19L64.1452 14.7283L70.5082 19L68.4169 11.7026L74.2459 7.03045H66.6815Z" fill="#8F5200"/>
<path d="M93.6815 7.03045L91.1007 0L88.5199 7.03045H81L86.829 11.7026L84.7822 19L91.1452 14.7283L97.5082 19L95.4169 11.7026L101.246 7.03045H93.6815Z" fill="#8F5200"/>
<path d="M120.682 7.03045L118.101 0L115.52 7.03045H108L113.829 11.7026L111.782 19L118.145 14.7283L124.508 19L122.417 11.7026L128.246 7.03045H120.682Z" fill="#8F5200"/>
</svg>
