<svg width="120" height="119" viewBox="0 0 120 119" fill="none" xmlns="http://www.w3.org/2000/svg">
<path d="M58.5 2L4.5 44L3 46.5L1.5 52.5L1 109L1.5 114.5L6 116.5H43.5V108.5V89.5L45 81L49.5 75.5L57.5 73H65L73.5 77.5L76 84L77.5 116.5H114L118.5 113.5V51L116 44L62 2H58.5Z" fill="white" stroke="black"/>
<path d="M114.25 118.511H77.1201C76.1481 118.511 75.3597 117.721 75.3597 116.751V88.5955C75.3597 80.3891 68.6825 73.7119 60.473 73.7119C52.2635 73.7119 45.5863 80.3875 45.5863 88.5955V116.751C45.5863 117.723 44.7979 118.511 43.8259 118.511H5.74957C2.57934 118.511 0 115.93 0 112.762V50.0003C0 47.2831 1.67313 43.842 3.81008 42.1643L55.7751 1.34784C58.0621 -0.449281 61.938 -0.449281 64.2234 1.34784L116.19 42.1643C118.327 43.8389 120 47.2831 120 50.0003V112.762C120 115.93 117.422 118.511 114.25 118.511ZM78.8805 114.989H114.25C115.48 114.989 116.479 113.991 116.479 112.762V50.0003C116.479 48.3593 115.305 45.9437 114.016 44.9319L62.0497 4.117C61.0134 3.30416 58.9882 3.30416 57.9503 4.117L5.98377 44.9334C4.69334 45.9437 3.51924 48.3593 3.51924 50.0018V112.763C3.51924 113.993 4.51883 114.991 5.74804 114.991H42.0655V88.5955C42.0655 78.4481 50.324 70.1911 60.473 70.1911C70.622 70.1911 78.879 78.4496 78.879 88.5955V114.989H78.8805Z" fill="#000928"/>
</svg>
