<svg width="512" height="162" viewBox="0 0 512 162" fill="none" xmlns="http://www.w3.org/2000/svg">
<g filter="url(#filter0_d)">
<path d="M506 4H6V153.442H506V4Z" stroke="white" stroke-width="6.6"/>
</g>
<g filter="url(#filter1_d)">
<path d="M495.737 13.2584H15.3768V143.596H495.737V13.2584Z" stroke="#F8F8F9" stroke-width="3.23544"/>
</g>
<g filter="url(#filter2_d)">
<path d="M83.6738 88.141L107.228 36.0946H127.521V39.4411C125.589 39.4998 124.018 39.7346 122.811 40.1456C121.663 40.5565 120.757 41.2611 120.093 42.2591C119.489 43.1985 119.066 44.5195 118.824 46.222C118.643 47.9247 118.553 50.0969 118.553 52.7389V87.2604C118.553 90.1958 118.673 92.5149 118.915 94.2174C119.157 95.9201 119.61 97.241 120.274 98.1803C120.999 99.1197 121.995 99.7362 123.263 100.03C124.592 100.323 126.313 100.499 128.427 100.558V103.905H99.0748V100.558C101.189 100.499 102.88 100.323 104.148 100.03C105.477 99.6775 106.504 99.061 107.228 98.1803C107.953 97.2997 108.436 96.0668 108.678 94.4816C108.919 92.8378 109.04 90.6362 109.04 87.8767V47.0147H108.134L81.6808 104.785H79.6877L53.6872 47.0147H53.3248V87.2604C53.3248 90.1958 53.4457 92.5149 53.6872 94.2174C53.9288 95.9201 54.3817 97.241 55.0462 98.1803C55.7709 99.1197 56.7674 99.7362 58.0357 100.03C59.3644 100.323 61.0857 100.499 63.1996 100.558V103.905H37.9238V100.558C40.0377 100.499 41.7288 100.323 42.9971 100.03C44.3258 99.6775 45.3526 99.061 46.0773 98.1803C46.8021 97.2997 47.2852 96.0668 47.5268 94.4816C47.7684 92.8378 47.8892 90.6362 47.8892 87.8767V52.1224C47.8892 49.6566 47.7684 47.6311 47.5268 46.0459C47.3456 44.402 46.9228 43.1104 46.2585 42.1711C45.6545 41.2317 44.7486 40.5859 43.5407 40.2336C42.3327 39.8227 40.7624 39.5585 38.8298 39.4411V36.0946H60.4818L83.3114 88.141H83.6738Z" fill="#F8F8F9"/>
</g>
<g filter="url(#filter3_d)">
<path d="M172.755 71.3203C172.755 68.9131 172.695 67.0344 172.574 65.6841C172.453 64.2751 172.121 63.2183 171.577 62.5138C171.094 61.7505 170.339 61.2515 169.313 61.0167C168.346 60.7231 166.987 60.4883 165.236 60.3122V57.2299H181.633V84.2658C181.633 87.6122 181.664 90.3422 181.724 92.4558C181.845 94.5694 181.996 96.1546 182.177 97.2114C182.298 97.9746 182.479 98.591 182.721 99.0607C183.023 99.4716 183.445 99.8239 183.989 100.117C184.532 100.352 185.227 100.528 186.073 100.646C186.978 100.705 188.126 100.734 189.515 100.734V103.816L174.567 104.873L173.571 94.3051H173.208C170.913 97.9452 168.256 100.616 165.236 102.319C162.277 103.963 159.166 104.785 155.905 104.785C153.368 104.785 150.892 104.315 148.476 103.376C146.121 102.437 144.339 101.174 143.131 99.5891C142.104 98.2974 141.349 96.5069 140.866 94.2171C140.443 91.9275 140.232 88.9626 140.232 85.3226V71.3203C140.232 68.9131 140.172 67.0344 140.051 65.6841C139.93 64.2751 139.598 63.2183 139.054 62.5138C138.571 61.7505 137.816 61.2515 136.789 61.0167C135.823 60.7231 134.464 60.4883 132.713 60.3122V57.2299H149.11V81.2716C149.11 87.671 149.865 92.309 151.375 95.1859C152.945 98.0626 155.422 99.501 158.804 99.501C164.119 99.501 168.256 96.1252 171.215 89.3735C171.517 88.669 171.759 88.0232 171.94 87.4361C172.121 86.849 172.272 86.2033 172.393 85.4987C172.514 84.7942 172.604 84.0016 172.665 83.121C172.725 82.2404 172.755 81.1835 172.755 79.9506V71.3203Z" fill="#F8F8F9"/>
</g>
<g filter="url(#filter4_d)">
<path d="M210.436 90.1666C210.436 92.3976 210.527 94.1882 210.708 95.5385C210.889 96.8888 211.252 97.9456 211.795 98.7089C212.399 99.4721 213.214 100.001 214.241 100.294C215.328 100.588 216.748 100.764 218.499 100.822V103.905H193.495V100.822C195.307 100.764 196.756 100.588 197.844 100.294C198.931 99.9417 199.776 99.4134 200.38 98.7089C201.045 98.0044 201.467 97.0356 201.649 95.8028C201.89 94.5111 202.011 92.8379 202.011 90.783V52.827C202.011 49.6567 201.951 47.0148 201.83 44.9012C201.769 42.7289 201.649 41.2612 201.467 40.4979C201.165 39.1476 200.441 38.2376 199.293 37.7679C198.206 37.2982 196.213 37.0634 193.314 37.0634V34.0692L210.436 30.8108V90.1666Z" fill="#F8F8F9"/>
</g>
<g filter="url(#filter5_d)">
<path d="M237.996 85.4991C237.996 87.7301 238.328 89.7849 238.993 91.6637C239.657 93.4836 240.563 95.0688 241.711 96.4191C242.919 97.7107 244.338 98.7383 245.968 99.5014C247.66 100.265 249.471 100.646 251.404 100.646C253.518 100.646 255.42 100.177 257.112 99.2372C258.863 98.2978 260.343 96.9768 261.551 95.2743C262.819 93.513 263.785 91.4288 264.45 89.0217C265.174 86.5559 265.537 83.8259 265.537 80.8317C265.537 77.8374 265.174 75.1074 264.45 72.6416C263.725 70.1171 262.728 67.9742 261.46 66.2129C260.192 64.3929 258.652 62.9838 256.84 61.9858C255.088 60.9877 253.156 60.4886 251.042 60.4886C248.566 60.4886 246.361 61.0757 244.428 62.2499C242.496 63.3655 241.016 64.9506 239.989 67.0055C238.661 69.5887 237.996 73.1406 237.996 77.6614V85.4991ZM237.815 63.4829H238.177C240.11 61.0171 242.224 59.2264 244.519 58.1109C246.874 56.9367 249.592 56.3496 252.672 56.3496C255.934 56.3496 258.954 56.9661 261.732 58.199C264.57 59.4318 267.016 61.1345 269.07 63.3067C271.184 65.479 272.815 68.0623 273.962 71.0564C275.17 73.992 275.774 77.1623 275.774 80.5675C275.774 84.0313 275.17 87.2603 273.962 90.2546C272.754 93.1901 271.093 95.744 268.979 97.9163C266.926 100.089 264.48 101.791 261.641 103.024C258.803 104.257 255.722 104.873 252.401 104.873C248.958 104.873 245.727 104.257 242.707 103.024C239.748 101.791 237.302 100.118 235.369 98.0043L231.111 103.905H229.118V50.7135C229.118 44.7838 228.725 40.997 227.94 39.3531C227.759 38.9421 227.548 38.6192 227.306 38.3844C227.065 38.0908 226.702 37.856 226.219 37.6799C225.736 37.445 225.071 37.2395 224.226 37.0634C223.38 36.8873 222.233 36.7111 220.783 36.535V34.3334L237.815 30.8108V63.4829Z" fill="#F8F8F9"/>
</g>
<g filter="url(#filter6_d)">
<path d="M327.44 95.7148C322.307 101.762 315.935 104.785 308.325 104.785C304.762 104.785 301.531 104.228 298.632 103.112C295.733 101.938 293.226 100.323 291.112 98.2686C289.059 96.1551 287.458 93.6599 286.311 90.7831C285.163 87.8476 284.589 84.6186 284.589 81.096C284.589 77.5146 285.193 74.1975 286.401 71.1447C287.609 68.0917 289.3 65.4791 291.475 63.3069C293.709 61.1346 296.337 59.432 299.356 58.1991C302.437 56.9662 305.789 56.3497 309.412 56.3497C315.271 56.3497 319.8 57.9056 323.001 61.0172C326.202 64.0701 327.803 68.4734 327.803 74.2269C327.803 75.0488 327.622 75.5479 327.259 75.7241C326.957 75.9001 326.202 75.9882 324.994 75.9882H295.189C295.068 76.4579 294.978 77.045 294.917 77.7495C294.857 78.3953 294.827 79.1291 294.827 79.9511C294.827 83.004 295.189 85.7928 295.914 88.3173C296.699 90.7831 297.786 92.8967 299.175 94.658C300.625 96.4193 302.316 97.7989 304.248 98.797C306.241 99.7363 308.446 100.206 310.862 100.206C313.398 100.206 315.754 99.6777 317.928 98.6209C320.102 97.5053 322.337 95.7148 324.632 93.2489L327.44 95.7148ZM312.492 71.9372C313.7 71.9372 314.667 71.9079 315.391 71.8492C316.116 71.7904 316.66 71.673 317.022 71.4969C317.384 71.3208 317.626 71.0859 317.747 70.7924C317.868 70.4402 317.928 69.9997 317.928 69.4714C317.928 66.7707 317.022 64.6278 315.21 63.0427C313.459 61.3988 311.043 60.5769 307.963 60.5769C301.44 60.5769 297.393 64.3636 295.823 71.9372H312.492Z" fill="#F8F8F9"/>
</g>
<g filter="url(#filter7_d)">
<path d="M352.106 89.9025C352.106 92.3096 352.166 94.2177 352.287 95.6267C352.408 97.0357 352.71 98.1219 353.193 98.8852C353.737 99.5897 354.491 100.059 355.458 100.294C356.424 100.529 357.783 100.705 359.535 100.823V103.905H335.437V100.823C337.188 100.764 338.577 100.617 339.604 100.382C340.631 100.089 341.416 99.5897 341.959 98.8852C342.503 98.1806 342.835 97.1825 342.956 95.8909C343.137 94.5406 343.228 92.7499 343.228 90.5189V80.2153C343.228 76.223 343.167 73.1115 343.046 70.8805C342.986 68.6495 342.684 67.0056 342.141 65.9488C341.657 64.892 340.872 64.2756 339.785 64.0995C338.698 63.8646 337.188 63.7472 335.255 63.7472V60.6649L351.109 57.3185L352.378 68.2385H352.74C353.525 66.4772 354.491 64.8627 355.639 63.3949C356.847 61.9272 358.145 60.6943 359.535 59.6962C360.924 58.6394 362.373 57.8175 363.883 57.2304C365.393 56.6433 366.933 56.3497 368.503 56.3497C370.436 56.3497 371.946 56.8194 373.033 57.7588C374.181 58.6394 374.754 59.843 374.754 61.3694C374.754 62.7785 374.301 63.894 373.395 64.7159C372.49 65.4792 371.191 65.8607 369.5 65.8607C368.534 65.8607 367.718 65.7433 367.054 65.5085C366.389 65.2737 365.786 65.0388 365.242 64.804C364.759 64.5104 364.276 64.2462 363.793 64.0114C363.37 63.7766 362.887 63.6591 362.343 63.6591C360.712 63.6591 359.082 64.6865 357.451 66.7414C355.82 68.7375 354.552 71.2914 353.646 74.4031C353.163 76.1056 352.77 78.0431 352.468 80.2153C352.227 82.3289 352.106 84.5599 352.106 86.9083V89.9025Z" fill="#F8F8F9"/>
</g>
<g filter="url(#filter8_d)">
<path d="M395.279 89.9025C395.279 92.3096 395.339 94.2177 395.46 95.6267C395.581 97.0357 395.883 98.1219 396.366 98.8852C396.91 99.5897 397.665 100.059 398.631 100.294C399.597 100.529 400.956 100.705 402.708 100.823V103.905H378.61V100.823C380.361 100.764 381.75 100.617 382.777 100.382C383.804 100.089 384.589 99.5897 385.133 98.8852C385.676 98.1806 386.008 97.1825 386.129 95.8909C386.31 94.5406 386.401 92.7499 386.401 90.5189V80.2153C386.401 76.223 386.34 73.1115 386.22 70.8805C386.159 68.6495 385.857 67.0056 385.314 65.9488C384.831 64.892 384.045 64.2756 382.958 64.0995C381.871 63.8646 380.361 63.7472 378.429 63.7472V60.6649L394.283 57.3185L395.551 68.2385H395.913C396.698 66.4772 397.665 64.8627 398.812 63.3949C400.02 61.9272 401.319 60.6943 402.708 59.6962C404.097 58.6394 405.546 57.8175 407.056 57.2304C408.566 56.6433 410.106 56.3497 411.677 56.3497C413.609 56.3497 415.119 56.8194 416.206 57.7588C417.354 58.6394 417.928 59.843 417.928 61.3694C417.928 62.7785 417.475 63.894 416.569 64.7159C415.663 65.4792 414.364 65.8607 412.673 65.8607C411.707 65.8607 410.892 65.7433 410.227 65.5085C409.563 65.2737 408.959 65.0388 408.415 64.804C407.932 64.5104 407.449 64.2462 406.966 64.0114C406.543 63.7766 406.06 63.6591 405.516 63.6591C403.886 63.6591 402.255 64.6865 400.624 66.7414C398.994 68.7375 397.725 71.2914 396.819 74.4031C396.336 76.1056 395.943 78.0431 395.641 80.2153C395.4 82.3289 395.279 84.5599 395.279 86.9083V89.9025Z" fill="#F8F8F9"/>
</g>
<g filter="url(#filter9_d)">
<path d="M443.797 117.73C441.019 123.778 436.701 126.801 430.842 126.801C427.037 126.801 425.135 125.421 425.135 122.662C425.135 121.194 425.648 120.108 426.675 119.404C427.762 118.758 429.725 118.2 432.564 117.73C433.832 117.554 434.919 117.29 435.825 116.938C436.731 116.644 437.546 116.233 438.271 115.705C438.996 115.235 439.63 114.619 440.173 113.856C440.777 113.092 441.351 112.153 441.895 111.037L445.066 104.873L427.671 68.1499C426.886 66.506 426.192 65.2144 425.588 64.2751C425.044 63.277 424.44 62.5138 423.776 61.9854C423.172 61.3983 422.477 61.0167 421.692 60.8405C420.907 60.6057 419.911 60.4296 418.703 60.3122V57.2299H442.71V60.3122C438.664 60.3122 436.64 61.2809 436.64 63.2183C436.64 63.9815 436.882 65.1851 437.365 66.829C437.848 68.4728 438.452 70.1461 439.177 71.8486L449.142 95.2739H449.595L457.839 75.4593C458.625 73.5219 459.259 71.9368 459.742 70.7038C460.285 69.4709 460.678 68.4728 460.92 67.7096C461.222 66.8877 461.403 66.2125 461.463 65.6841C461.584 65.1557 461.644 64.6567 461.644 64.187C461.644 62.6605 461.191 61.6331 460.285 61.1047C459.44 60.5763 457.779 60.3122 455.303 60.3122V57.2299H475.233V60.3122C474.086 60.3122 473.12 60.4589 472.334 60.7525C471.549 61.046 470.734 61.7212 469.888 62.778C469.103 63.776 468.197 65.2438 467.171 67.1812C466.204 69.1187 464.996 71.7312 463.547 75.019L443.797 117.73Z" fill="#F8F8F9"/>
</g>
<g filter="url(#filter10_d)">
<path d="M53.5512 113.892H44.3678V116.924H52.8809V120.077H44.3678V127.04H39.2465V110.739H53.5512V113.892Z" fill="#F8F8F9"/>
</g>
<g filter="url(#filter11_d)">
<path d="M68.9942 127.04H57.3037V124.15H60.5749V113.629H57.3037V110.739H68.9942V113.629H65.723V124.15H68.9942V127.04Z" fill="#F8F8F9"/>
</g>
<g filter="url(#filter12_d)">
<path d="M89.9351 113.892H83.7011V127.04H78.553V113.892H72.319V110.739H89.9351V113.892Z" fill="#F8F8F9"/>
</g>
<g filter="url(#filter13_d)">
<path d="M109.749 113.892H103.515V127.04H98.3668V113.892H92.1328V110.739H109.749V113.892Z" fill="#F8F8F9"/>
</g>
<g filter="url(#filter14_d)">
<path d="M128.382 127.04H113.943V110.739H128.382V113.892H119.064V116.705H127.712V119.858H119.064V123.887H128.382V127.04Z" fill="#F8F8F9"/>
</g>
<g filter="url(#filter15_d)">
<path d="M152.674 118.906C152.674 120.424 152.25 121.785 151.401 122.989C150.551 124.186 149.479 125.106 148.183 125.748C147.209 126.23 146.141 126.565 144.979 126.755C143.817 126.945 142.441 127.04 140.85 127.04H133.811V110.739H141.051C142.677 110.739 144.081 110.852 145.26 111.078C146.44 111.297 147.432 111.611 148.237 112.02C149.613 112.706 150.695 113.633 151.481 114.8C152.276 115.961 152.674 117.329 152.674 118.906ZM147.352 118.873C147.352 117.8 147.111 116.884 146.628 116.125C146.154 115.359 145.399 114.76 144.362 114.33C143.835 114.118 143.294 113.976 142.74 113.903C142.195 113.822 141.368 113.782 140.26 113.782H138.959V123.985H140.26C141.484 123.985 142.382 123.942 142.955 123.854C143.527 123.759 144.085 123.591 144.63 123.35C145.569 122.913 146.257 122.329 146.695 121.599C147.133 120.862 147.352 119.953 147.352 118.873Z" fill="#F8F8F9"/>
</g>
<g filter="url(#filter16_d)">
<path d="M186.819 127.04H180.504L174.539 120.515L173.332 121.708V127.04H168.184V110.739H173.332V118.117L180.464 110.739H186.43L178.628 118.282L186.819 127.04Z" fill="#F8F8F9"/>
</g>
<g filter="url(#filter17_d)">
<path d="M201.256 127.04H189.565V124.15H192.836V113.629H189.565V110.739H201.256V113.629H197.984V124.15H201.256V127.04Z" fill="#F8F8F9"/>
</g>
<g filter="url(#filter18_d)">
<path d="M222.306 113.892H216.072V127.04H210.924V113.892H204.69V110.739H222.306V113.892Z" fill="#F8F8F9"/>
</g>
<g filter="url(#filter19_d)">
<path d="M235.524 127.358C234.04 127.358 232.668 127.179 231.408 126.822C230.157 126.464 229.08 125.931 228.177 125.223C227.274 124.515 226.573 123.632 226.072 122.574C225.581 121.516 225.335 120.293 225.335 118.906C225.335 117.615 225.572 116.443 226.045 115.392C226.519 114.341 227.207 113.44 228.11 112.688C228.977 111.966 230.049 111.407 231.327 111.013C232.614 110.619 234.018 110.422 235.537 110.422C236.377 110.422 237.132 110.462 237.803 110.542C238.482 110.615 239.108 110.714 239.68 110.838C240.279 110.977 240.819 111.134 241.302 111.309C241.794 111.477 242.223 111.634 242.589 111.78V115.732H241.999C241.749 115.556 241.431 115.348 241.047 115.108C240.672 114.867 240.243 114.63 239.76 114.396C239.269 114.162 238.737 113.965 238.165 113.805C237.593 113.644 236.981 113.564 236.328 113.564C235.604 113.564 234.916 113.659 234.264 113.849C233.611 114.031 233.008 114.338 232.454 114.768C231.926 115.184 231.497 115.735 231.167 116.421C230.845 117.107 230.684 117.939 230.684 118.917C230.684 119.939 230.858 120.793 231.207 121.479C231.564 122.165 232.011 122.705 232.547 123.099C233.093 123.501 233.7 123.789 234.371 123.964C235.041 124.132 235.702 124.216 236.355 124.216C236.981 124.216 237.597 124.139 238.205 123.986C238.822 123.833 239.389 123.625 239.908 123.362C240.346 123.15 240.752 122.924 241.128 122.683C241.503 122.443 241.811 122.235 242.053 122.059H242.589V125.957C242.088 126.139 241.61 126.311 241.154 126.471C240.699 126.632 240.22 126.771 239.72 126.887C239.068 127.041 238.455 127.157 237.883 127.238C237.311 127.318 236.525 127.358 235.524 127.358Z" fill="#F8F8F9"/>
</g>
<g filter="url(#filter20_d)">
<path d="M265.393 127.04H260.244V119.858H252.643V127.04H247.495V110.739H252.643V116.705H260.244V110.739H265.393V127.04Z" fill="#F8F8F9"/>
</g>
<g filter="url(#filter21_d)">
<path d="M286.037 127.04H271.599V110.739H286.037V113.892H276.72V116.705H285.367V119.858H276.72V123.887H286.037V127.04Z" fill="#F8F8F9"/>
</g>
<g filter="url(#filter22_d)">
<path d="M309.619 127.04H304.658L296.185 115.851V127.04H291.466V110.739H297.62L304.9 120.077V110.739H309.619V127.04Z" fill="#F8F8F9"/>
</g>
<g filter="url(#filter23_d)">
<path d="M331.819 121.917C331.819 123.523 330.983 124.829 329.312 125.836C327.65 126.836 325.388 127.336 322.528 127.336C320.875 127.336 319.431 127.219 318.198 126.986C316.973 126.745 315.825 126.442 314.752 126.077V122.169H315.316C316.379 122.862 317.568 123.395 318.882 123.767C320.204 124.139 321.474 124.326 322.689 124.326C323.002 124.326 323.413 124.304 323.923 124.26C324.432 124.216 324.848 124.143 325.169 124.041C325.563 123.91 325.884 123.745 326.135 123.548C326.394 123.351 326.523 123.059 326.523 122.673C326.523 122.315 326.336 122.008 325.96 121.753C325.594 121.49 325.053 121.289 324.338 121.151C323.587 121.005 322.792 120.87 321.952 120.746C321.121 120.614 320.339 120.45 319.606 120.253C317.925 119.808 316.714 119.206 315.972 118.447C315.24 117.68 314.873 116.732 314.873 115.6C314.873 114.082 315.704 112.845 317.367 111.889C319.038 110.926 321.183 110.444 323.802 110.444C325.116 110.444 326.412 110.55 327.69 110.761C328.977 110.966 330.09 111.225 331.028 111.539V115.294H330.478C329.674 114.768 328.686 114.33 327.516 113.98C326.354 113.622 325.165 113.444 323.949 113.444C323.52 113.444 323.091 113.469 322.662 113.52C322.242 113.564 321.836 113.652 321.442 113.783C321.094 113.892 320.794 114.06 320.544 114.287C320.294 114.506 320.169 114.757 320.169 115.042C320.169 115.473 320.37 115.805 320.772 116.038C321.174 116.264 321.934 116.472 323.051 116.662C323.784 116.786 324.486 116.907 325.156 117.023C325.835 117.14 326.564 117.301 327.341 117.505C328.87 117.914 329.996 118.472 330.72 119.18C331.453 119.881 331.819 120.793 331.819 121.917Z" fill="#F8F8F9"/>
</g>
<g filter="url(#filter24_d)">
<path d="M361.339 127.04H346.94V110.739H352.088V123.887H361.339V127.04Z" fill="#F8F8F9"/>
</g>
<g filter="url(#filter25_d)">
<path d="M381.138 113.892H374.904V127.04H369.756V113.892H363.522V110.739H381.138V113.892Z" fill="#F8F8F9"/>
</g>
<g filter="url(#filter26_d)">
<path d="M404.196 118.906C404.196 120.424 403.772 121.785 402.923 122.989C402.074 124.186 401.001 125.106 399.705 125.748C398.731 126.23 397.663 126.565 396.501 126.755C395.339 126.945 393.963 127.04 392.372 127.04H385.333V110.739H392.573C394.2 110.739 395.603 110.852 396.783 111.078C397.962 111.297 398.955 111.611 399.759 112.02C401.135 112.706 402.217 113.633 403.003 114.8C403.799 115.961 404.196 117.329 404.196 118.906ZM398.874 118.873C398.874 117.8 398.633 116.884 398.15 116.125C397.676 115.359 396.921 114.76 395.884 114.33C395.357 114.118 394.816 113.976 394.262 113.903C393.717 113.822 392.89 113.782 391.782 113.782H390.482V123.985H391.782C393.007 123.985 393.905 123.942 394.477 123.854C395.049 123.759 395.607 123.591 396.153 123.35C397.091 122.913 397.779 122.329 398.217 121.599C398.655 120.862 398.874 119.953 398.874 118.873Z" fill="#F8F8F9"/>
</g>
<defs>
<filter id="filter0_d" x="0.700012" y="0.700012" width="510.6" height="161.042" filterUnits="userSpaceOnUse" color-interpolation-filters="sRGB">
<feFlood flood-opacity="0" result="BackgroundImageFix"/>
<feColorMatrix in="SourceAlpha" type="matrix" values="0 0 0 0 0 0 0 0 0 0 0 0 0 0 0 0 0 0 127 0"/>
<feOffset dy="3"/>
<feGaussianBlur stdDeviation="1"/>
<feColorMatrix type="matrix" values="0 0 0 0 0 0 0 0 0 0 0 0 0 0 0 0 0 0 0.25 0"/>
<feBlend mode="normal" in2="BackgroundImageFix" result="effect1_dropShadow"/>
<feBlend mode="normal" in="SourceGraphic" in2="effect1_dropShadow" result="shape"/>
</filter>
<filter id="filter1_d" x="11.7591" y="11.6407" width="487.596" height="138.573" filterUnits="userSpaceOnUse" color-interpolation-filters="sRGB">
<feFlood flood-opacity="0" result="BackgroundImageFix"/>
<feColorMatrix in="SourceAlpha" type="matrix" values="0 0 0 0 0 0 0 0 0 0 0 0 0 0 0 0 0 0 127 0"/>
<feOffset dy="3"/>
<feGaussianBlur stdDeviation="1"/>
<feColorMatrix type="matrix" values="0 0 0 0 0 0 0 0 0 0 0 0 0 0 0 0 0 0 0.25 0"/>
<feBlend mode="normal" in2="BackgroundImageFix" result="effect1_dropShadow"/>
<feBlend mode="normal" in="SourceGraphic" in2="effect1_dropShadow" result="shape"/>
</filter>
<filter id="filter2_d" x="35.9238" y="36.0946" width="94.5035" height="73.6906" filterUnits="userSpaceOnUse" color-interpolation-filters="sRGB">
<feFlood flood-opacity="0" result="BackgroundImageFix"/>
<feColorMatrix in="SourceAlpha" type="matrix" values="0 0 0 0 0 0 0 0 0 0 0 0 0 0 0 0 0 0 127 0"/>
<feOffset dy="3"/>
<feGaussianBlur stdDeviation="1"/>
<feColorMatrix type="matrix" values="0 0 0 0 0 0 0 0 0 0 0 0 0 0 0 0 0 0 0.25 0"/>
<feBlend mode="normal" in2="BackgroundImageFix" result="effect1_dropShadow"/>
<feBlend mode="normal" in="SourceGraphic" in2="effect1_dropShadow" result="shape"/>
</filter>
<filter id="filter3_d" x="130.713" y="57.2299" width="60.8025" height="52.6431" filterUnits="userSpaceOnUse" color-interpolation-filters="sRGB">
<feFlood flood-opacity="0" result="BackgroundImageFix"/>
<feColorMatrix in="SourceAlpha" type="matrix" values="0 0 0 0 0 0 0 0 0 0 0 0 0 0 0 0 0 0 127 0"/>
<feOffset dy="3"/>
<feGaussianBlur stdDeviation="1"/>
<feColorMatrix type="matrix" values="0 0 0 0 0 0 0 0 0 0 0 0 0 0 0 0 0 0 0.25 0"/>
<feBlend mode="normal" in2="BackgroundImageFix" result="effect1_dropShadow"/>
<feBlend mode="normal" in="SourceGraphic" in2="effect1_dropShadow" result="shape"/>
</filter>
<filter id="filter4_d" x="191.314" y="30.8108" width="29.1852" height="78.0939" filterUnits="userSpaceOnUse" color-interpolation-filters="sRGB">
<feFlood flood-opacity="0" result="BackgroundImageFix"/>
<feColorMatrix in="SourceAlpha" type="matrix" values="0 0 0 0 0 0 0 0 0 0 0 0 0 0 0 0 0 0 127 0"/>
<feOffset dy="3"/>
<feGaussianBlur stdDeviation="1"/>
<feColorMatrix type="matrix" values="0 0 0 0 0 0 0 0 0 0 0 0 0 0 0 0 0 0 0.25 0"/>
<feBlend mode="normal" in2="BackgroundImageFix" result="effect1_dropShadow"/>
<feBlend mode="normal" in="SourceGraphic" in2="effect1_dropShadow" result="shape"/>
</filter>
<filter id="filter5_d" x="218.783" y="30.8108" width="58.9906" height="79.0626" filterUnits="userSpaceOnUse" color-interpolation-filters="sRGB">
<feFlood flood-opacity="0" result="BackgroundImageFix"/>
<feColorMatrix in="SourceAlpha" type="matrix" values="0 0 0 0 0 0 0 0 0 0 0 0 0 0 0 0 0 0 127 0"/>
<feOffset dy="3"/>
<feGaussianBlur stdDeviation="1"/>
<feColorMatrix type="matrix" values="0 0 0 0 0 0 0 0 0 0 0 0 0 0 0 0 0 0 0.25 0"/>
<feBlend mode="normal" in2="BackgroundImageFix" result="effect1_dropShadow"/>
<feBlend mode="normal" in="SourceGraphic" in2="effect1_dropShadow" result="shape"/>
</filter>
<filter id="filter6_d" x="282.589" y="56.3497" width="47.2134" height="53.4357" filterUnits="userSpaceOnUse" color-interpolation-filters="sRGB">
<feFlood flood-opacity="0" result="BackgroundImageFix"/>
<feColorMatrix in="SourceAlpha" type="matrix" values="0 0 0 0 0 0 0 0 0 0 0 0 0 0 0 0 0 0 127 0"/>
<feOffset dy="3"/>
<feGaussianBlur stdDeviation="1"/>
<feColorMatrix type="matrix" values="0 0 0 0 0 0 0 0 0 0 0 0 0 0 0 0 0 0 0.25 0"/>
<feBlend mode="normal" in2="BackgroundImageFix" result="effect1_dropShadow"/>
<feBlend mode="normal" in="SourceGraphic" in2="effect1_dropShadow" result="shape"/>
</filter>
<filter id="filter7_d" x="333.255" y="56.3497" width="43.499" height="52.5551" filterUnits="userSpaceOnUse" color-interpolation-filters="sRGB">
<feFlood flood-opacity="0" result="BackgroundImageFix"/>
<feColorMatrix in="SourceAlpha" type="matrix" values="0 0 0 0 0 0 0 0 0 0 0 0 0 0 0 0 0 0 127 0"/>
<feOffset dy="3"/>
<feGaussianBlur stdDeviation="1"/>
<feColorMatrix type="matrix" values="0 0 0 0 0 0 0 0 0 0 0 0 0 0 0 0 0 0 0.25 0"/>
<feBlend mode="normal" in2="BackgroundImageFix" result="effect1_dropShadow"/>
<feBlend mode="normal" in="SourceGraphic" in2="effect1_dropShadow" result="shape"/>
</filter>
<filter id="filter8_d" x="376.429" y="56.3497" width="43.4991" height="52.5551" filterUnits="userSpaceOnUse" color-interpolation-filters="sRGB">
<feFlood flood-opacity="0" result="BackgroundImageFix"/>
<feColorMatrix in="SourceAlpha" type="matrix" values="0 0 0 0 0 0 0 0 0 0 0 0 0 0 0 0 0 0 127 0"/>
<feOffset dy="3"/>
<feGaussianBlur stdDeviation="1"/>
<feColorMatrix type="matrix" values="0 0 0 0 0 0 0 0 0 0 0 0 0 0 0 0 0 0 0.25 0"/>
<feBlend mode="normal" in2="BackgroundImageFix" result="effect1_dropShadow"/>
<feBlend mode="normal" in="SourceGraphic" in2="effect1_dropShadow" result="shape"/>
</filter>
<filter id="filter9_d" x="416.703" y="57.2299" width="60.5307" height="74.5712" filterUnits="userSpaceOnUse" color-interpolation-filters="sRGB">
<feFlood flood-opacity="0" result="BackgroundImageFix"/>
<feColorMatrix in="SourceAlpha" type="matrix" values="0 0 0 0 0 0 0 0 0 0 0 0 0 0 0 0 0 0 127 0"/>
<feOffset dy="3"/>
<feGaussianBlur stdDeviation="1"/>
<feColorMatrix type="matrix" values="0 0 0 0 0 0 0 0 0 0 0 0 0 0 0 0 0 0 0.25 0"/>
<feBlend mode="normal" in2="BackgroundImageFix" result="effect1_dropShadow"/>
<feBlend mode="normal" in="SourceGraphic" in2="effect1_dropShadow" result="shape"/>
</filter>
<filter id="filter10_d" x="37.2465" y="110.739" width="18.3047" height="21.3011" filterUnits="userSpaceOnUse" color-interpolation-filters="sRGB">
<feFlood flood-opacity="0" result="BackgroundImageFix"/>
<feColorMatrix in="SourceAlpha" type="matrix" values="0 0 0 0 0 0 0 0 0 0 0 0 0 0 0 0 0 0 127 0"/>
<feOffset dy="3"/>
<feGaussianBlur stdDeviation="1"/>
<feColorMatrix type="matrix" values="0 0 0 0 0 0 0 0 0 0 0 0 0 0 0 0 0 0 0.25 0"/>
<feBlend mode="normal" in2="BackgroundImageFix" result="effect1_dropShadow"/>
<feBlend mode="normal" in="SourceGraphic" in2="effect1_dropShadow" result="shape"/>
</filter>
<filter id="filter11_d" x="55.3037" y="110.739" width="15.6905" height="21.3011" filterUnits="userSpaceOnUse" color-interpolation-filters="sRGB">
<feFlood flood-opacity="0" result="BackgroundImageFix"/>
<feColorMatrix in="SourceAlpha" type="matrix" values="0 0 0 0 0 0 0 0 0 0 0 0 0 0 0 0 0 0 127 0"/>
<feOffset dy="3"/>
<feGaussianBlur stdDeviation="1"/>
<feColorMatrix type="matrix" values="0 0 0 0 0 0 0 0 0 0 0 0 0 0 0 0 0 0 0.25 0"/>
<feBlend mode="normal" in2="BackgroundImageFix" result="effect1_dropShadow"/>
<feBlend mode="normal" in="SourceGraphic" in2="effect1_dropShadow" result="shape"/>
</filter>
<filter id="filter12_d" x="70.319" y="110.739" width="21.6161" height="21.3011" filterUnits="userSpaceOnUse" color-interpolation-filters="sRGB">
<feFlood flood-opacity="0" result="BackgroundImageFix"/>
<feColorMatrix in="SourceAlpha" type="matrix" values="0 0 0 0 0 0 0 0 0 0 0 0 0 0 0 0 0 0 127 0"/>
<feOffset dy="3"/>
<feGaussianBlur stdDeviation="1"/>
<feColorMatrix type="matrix" values="0 0 0 0 0 0 0 0 0 0 0 0 0 0 0 0 0 0 0.25 0"/>
<feBlend mode="normal" in2="BackgroundImageFix" result="effect1_dropShadow"/>
<feBlend mode="normal" in="SourceGraphic" in2="effect1_dropShadow" result="shape"/>
</filter>
<filter id="filter13_d" x="90.1328" y="110.739" width="21.6162" height="21.3011" filterUnits="userSpaceOnUse" color-interpolation-filters="sRGB">
<feFlood flood-opacity="0" result="BackgroundImageFix"/>
<feColorMatrix in="SourceAlpha" type="matrix" values="0 0 0 0 0 0 0 0 0 0 0 0 0 0 0 0 0 0 127 0"/>
<feOffset dy="3"/>
<feGaussianBlur stdDeviation="1"/>
<feColorMatrix type="matrix" values="0 0 0 0 0 0 0 0 0 0 0 0 0 0 0 0 0 0 0.25 0"/>
<feBlend mode="normal" in2="BackgroundImageFix" result="effect1_dropShadow"/>
<feBlend mode="normal" in="SourceGraphic" in2="effect1_dropShadow" result="shape"/>
</filter>
<filter id="filter14_d" x="111.943" y="110.739" width="18.4388" height="21.3011" filterUnits="userSpaceOnUse" color-interpolation-filters="sRGB">
<feFlood flood-opacity="0" result="BackgroundImageFix"/>
<feColorMatrix in="SourceAlpha" type="matrix" values="0 0 0 0 0 0 0 0 0 0 0 0 0 0 0 0 0 0 127 0"/>
<feOffset dy="3"/>
<feGaussianBlur stdDeviation="1"/>
<feColorMatrix type="matrix" values="0 0 0 0 0 0 0 0 0 0 0 0 0 0 0 0 0 0 0.25 0"/>
<feBlend mode="normal" in2="BackgroundImageFix" result="effect1_dropShadow"/>
<feBlend mode="normal" in="SourceGraphic" in2="effect1_dropShadow" result="shape"/>
</filter>
<filter id="filter15_d" x="131.811" y="110.739" width="22.8629" height="21.3011" filterUnits="userSpaceOnUse" color-interpolation-filters="sRGB">
<feFlood flood-opacity="0" result="BackgroundImageFix"/>
<feColorMatrix in="SourceAlpha" type="matrix" values="0 0 0 0 0 0 0 0 0 0 0 0 0 0 0 0 0 0 127 0"/>
<feOffset dy="3"/>
<feGaussianBlur stdDeviation="1"/>
<feColorMatrix type="matrix" values="0 0 0 0 0 0 0 0 0 0 0 0 0 0 0 0 0 0 0.25 0"/>
<feBlend mode="normal" in2="BackgroundImageFix" result="effect1_dropShadow"/>
<feBlend mode="normal" in="SourceGraphic" in2="effect1_dropShadow" result="shape"/>
</filter>
<filter id="filter16_d" x="166.184" y="110.739" width="22.635" height="21.3011" filterUnits="userSpaceOnUse" color-interpolation-filters="sRGB">
<feFlood flood-opacity="0" result="BackgroundImageFix"/>
<feColorMatrix in="SourceAlpha" type="matrix" values="0 0 0 0 0 0 0 0 0 0 0 0 0 0 0 0 0 0 127 0"/>
<feOffset dy="3"/>
<feGaussianBlur stdDeviation="1"/>
<feColorMatrix type="matrix" values="0 0 0 0 0 0 0 0 0 0 0 0 0 0 0 0 0 0 0.25 0"/>
<feBlend mode="normal" in2="BackgroundImageFix" result="effect1_dropShadow"/>
<feBlend mode="normal" in="SourceGraphic" in2="effect1_dropShadow" result="shape"/>
</filter>
<filter id="filter17_d" x="187.565" y="110.739" width="15.6904" height="21.3011" filterUnits="userSpaceOnUse" color-interpolation-filters="sRGB">
<feFlood flood-opacity="0" result="BackgroundImageFix"/>
<feColorMatrix in="SourceAlpha" type="matrix" values="0 0 0 0 0 0 0 0 0 0 0 0 0 0 0 0 0 0 127 0"/>
<feOffset dy="3"/>
<feGaussianBlur stdDeviation="1"/>
<feColorMatrix type="matrix" values="0 0 0 0 0 0 0 0 0 0 0 0 0 0 0 0 0 0 0.25 0"/>
<feBlend mode="normal" in2="BackgroundImageFix" result="effect1_dropShadow"/>
<feBlend mode="normal" in="SourceGraphic" in2="effect1_dropShadow" result="shape"/>
</filter>
<filter id="filter18_d" x="202.69" y="110.739" width="21.6161" height="21.3011" filterUnits="userSpaceOnUse" color-interpolation-filters="sRGB">
<feFlood flood-opacity="0" result="BackgroundImageFix"/>
<feColorMatrix in="SourceAlpha" type="matrix" values="0 0 0 0 0 0 0 0 0 0 0 0 0 0 0 0 0 0 127 0"/>
<feOffset dy="3"/>
<feGaussianBlur stdDeviation="1"/>
<feColorMatrix type="matrix" values="0 0 0 0 0 0 0 0 0 0 0 0 0 0 0 0 0 0 0.25 0"/>
<feBlend mode="normal" in2="BackgroundImageFix" result="effect1_dropShadow"/>
<feBlend mode="normal" in="SourceGraphic" in2="effect1_dropShadow" result="shape"/>
</filter>
<filter id="filter19_d" x="223.335" y="110.422" width="21.2542" height="21.9361" filterUnits="userSpaceOnUse" color-interpolation-filters="sRGB">
<feFlood flood-opacity="0" result="BackgroundImageFix"/>
<feColorMatrix in="SourceAlpha" type="matrix" values="0 0 0 0 0 0 0 0 0 0 0 0 0 0 0 0 0 0 127 0"/>
<feOffset dy="3"/>
<feGaussianBlur stdDeviation="1"/>
<feColorMatrix type="matrix" values="0 0 0 0 0 0 0 0 0 0 0 0 0 0 0 0 0 0 0.25 0"/>
<feBlend mode="normal" in2="BackgroundImageFix" result="effect1_dropShadow"/>
<feBlend mode="normal" in="SourceGraphic" in2="effect1_dropShadow" result="shape"/>
</filter>
<filter id="filter20_d" x="245.495" y="110.739" width="21.8978" height="21.3011" filterUnits="userSpaceOnUse" color-interpolation-filters="sRGB">
<feFlood flood-opacity="0" result="BackgroundImageFix"/>
<feColorMatrix in="SourceAlpha" type="matrix" values="0 0 0 0 0 0 0 0 0 0 0 0 0 0 0 0 0 0 127 0"/>
<feOffset dy="3"/>
<feGaussianBlur stdDeviation="1"/>
<feColorMatrix type="matrix" values="0 0 0 0 0 0 0 0 0 0 0 0 0 0 0 0 0 0 0.25 0"/>
<feBlend mode="normal" in2="BackgroundImageFix" result="effect1_dropShadow"/>
<feBlend mode="normal" in="SourceGraphic" in2="effect1_dropShadow" result="shape"/>
</filter>
<filter id="filter21_d" x="269.599" y="110.739" width="18.4387" height="21.3011" filterUnits="userSpaceOnUse" color-interpolation-filters="sRGB">
<feFlood flood-opacity="0" result="BackgroundImageFix"/>
<feColorMatrix in="SourceAlpha" type="matrix" values="0 0 0 0 0 0 0 0 0 0 0 0 0 0 0 0 0 0 127 0"/>
<feOffset dy="3"/>
<feGaussianBlur stdDeviation="1"/>
<feColorMatrix type="matrix" values="0 0 0 0 0 0 0 0 0 0 0 0 0 0 0 0 0 0 0.25 0"/>
<feBlend mode="normal" in2="BackgroundImageFix" result="effect1_dropShadow"/>
<feBlend mode="normal" in="SourceGraphic" in2="effect1_dropShadow" result="shape"/>
</filter>
<filter id="filter22_d" x="289.466" y="110.739" width="22.1524" height="21.3011" filterUnits="userSpaceOnUse" color-interpolation-filters="sRGB">
<feFlood flood-opacity="0" result="BackgroundImageFix"/>
<feColorMatrix in="SourceAlpha" type="matrix" values="0 0 0 0 0 0 0 0 0 0 0 0 0 0 0 0 0 0 127 0"/>
<feOffset dy="3"/>
<feGaussianBlur stdDeviation="1"/>
<feColorMatrix type="matrix" values="0 0 0 0 0 0 0 0 0 0 0 0 0 0 0 0 0 0 0.25 0"/>
<feBlend mode="normal" in2="BackgroundImageFix" result="effect1_dropShadow"/>
<feBlend mode="normal" in="SourceGraphic" in2="effect1_dropShadow" result="shape"/>
</filter>
<filter id="filter23_d" x="312.752" y="110.444" width="21.0667" height="21.8922" filterUnits="userSpaceOnUse" color-interpolation-filters="sRGB">
<feFlood flood-opacity="0" result="BackgroundImageFix"/>
<feColorMatrix in="SourceAlpha" type="matrix" values="0 0 0 0 0 0 0 0 0 0 0 0 0 0 0 0 0 0 127 0"/>
<feOffset dy="3"/>
<feGaussianBlur stdDeviation="1"/>
<feColorMatrix type="matrix" values="0 0 0 0 0 0 0 0 0 0 0 0 0 0 0 0 0 0 0.25 0"/>
<feBlend mode="normal" in2="BackgroundImageFix" result="effect1_dropShadow"/>
<feBlend mode="normal" in="SourceGraphic" in2="effect1_dropShadow" result="shape"/>
</filter>
<filter id="filter24_d" x="344.94" y="110.739" width="18.3986" height="21.3011" filterUnits="userSpaceOnUse" color-interpolation-filters="sRGB">
<feFlood flood-opacity="0" result="BackgroundImageFix"/>
<feColorMatrix in="SourceAlpha" type="matrix" values="0 0 0 0 0 0 0 0 0 0 0 0 0 0 0 0 0 0 127 0"/>
<feOffset dy="3"/>
<feGaussianBlur stdDeviation="1"/>
<feColorMatrix type="matrix" values="0 0 0 0 0 0 0 0 0 0 0 0 0 0 0 0 0 0 0.25 0"/>
<feBlend mode="normal" in2="BackgroundImageFix" result="effect1_dropShadow"/>
<feBlend mode="normal" in="SourceGraphic" in2="effect1_dropShadow" result="shape"/>
</filter>
<filter id="filter25_d" x="361.522" y="110.739" width="21.6161" height="21.3011" filterUnits="userSpaceOnUse" color-interpolation-filters="sRGB">
<feFlood flood-opacity="0" result="BackgroundImageFix"/>
<feColorMatrix in="SourceAlpha" type="matrix" values="0 0 0 0 0 0 0 0 0 0 0 0 0 0 0 0 0 0 127 0"/>
<feOffset dy="3"/>
<feGaussianBlur stdDeviation="1"/>
<feColorMatrix type="matrix" values="0 0 0 0 0 0 0 0 0 0 0 0 0 0 0 0 0 0 0.25 0"/>
<feBlend mode="normal" in2="BackgroundImageFix" result="effect1_dropShadow"/>
<feBlend mode="normal" in="SourceGraphic" in2="effect1_dropShadow" result="shape"/>
</filter>
<filter id="filter26_d" x="383.333" y="110.739" width="22.863" height="21.3011" filterUnits="userSpaceOnUse" color-interpolation-filters="sRGB">
<feFlood flood-opacity="0" result="BackgroundImageFix"/>
<feColorMatrix in="SourceAlpha" type="matrix" values="0 0 0 0 0 0 0 0 0 0 0 0 0 0 0 0 0 0 127 0"/>
<feOffset dy="3"/>
<feGaussianBlur stdDeviation="1"/>
<feColorMatrix type="matrix" values="0 0 0 0 0 0 0 0 0 0 0 0 0 0 0 0 0 0 0.25 0"/>
<feBlend mode="normal" in2="BackgroundImageFix" result="effect1_dropShadow"/>
<feBlend mode="normal" in="SourceGraphic" in2="effect1_dropShadow" result="shape"/>
</filter>
</defs>
</svg>
