<svg width="512" height="162" viewBox="0 0 512 162" fill="none" xmlns="http://www.w3.org/2000/svg">
<g filter="url(#filter0_d)">
<path d="M506 4H6V153.442H506V4Z" stroke="white" stroke-width="6.6"/>
</g>
<g filter="url(#filter1_d)">
<path d="M495.737 13.2584H15.3768V143.596H495.737V13.2584Z" stroke="#F8F8F9" stroke-width="3.23544"/>
</g>
<g filter="url(#filter2_d)">
<path d="M83.6738 81.141L107.228 29.0946H127.521V32.4411C125.589 32.4998 124.018 32.7346 122.811 33.1456C121.663 33.5565 120.757 34.2611 120.093 35.2591C119.489 36.1985 119.066 37.5195 118.824 39.222C118.643 40.9247 118.553 43.0969 118.553 45.7389V80.2604C118.553 83.1958 118.673 85.5149 118.915 87.2174C119.157 88.9201 119.61 90.241 120.274 91.1803C120.999 92.1197 121.995 92.7362 123.263 93.0298C124.592 93.3233 126.313 93.4994 128.427 93.5581V96.9045H99.0748V93.5581C101.189 93.4994 102.88 93.3233 104.148 93.0298C105.477 92.6775 106.504 92.061 107.228 91.1803C107.953 90.2997 108.436 89.0668 108.678 87.4816C108.919 85.8378 109.04 83.6362 109.04 80.8767V40.0147H108.134L81.6807 97.7852H79.6877L53.6872 40.0147H53.3248V80.2604C53.3248 83.1958 53.4457 85.5149 53.6872 87.2174C53.9287 88.9201 54.3817 90.241 55.0461 91.1803C55.7709 92.1197 56.7673 92.7362 58.0357 93.0298C59.3644 93.3233 61.0857 93.4994 63.1996 93.5581V96.9045H37.9238V93.5581C40.0377 93.4994 41.7288 93.3233 42.9971 93.0298C44.3258 92.6775 45.3525 92.061 46.0773 91.1803C46.802 90.2997 47.2852 89.0668 47.5268 87.4816C47.7684 85.8378 47.8892 83.6362 47.8892 80.8767V45.1224C47.8892 42.6566 47.7684 40.6311 47.5268 39.0459C47.3456 37.402 46.9228 36.1104 46.2585 35.1711C45.6545 34.2317 44.7486 33.5859 43.5407 33.2336C42.3327 32.8227 40.7624 32.5585 38.8298 32.4411V29.0946H60.4818L83.3114 81.141H83.6738Z" fill="#F8F8F9"/>
</g>
<g filter="url(#filter3_d)">
<path d="M172.755 64.3203C172.755 61.9131 172.695 60.0344 172.574 58.6841C172.453 57.2751 172.121 56.2183 171.577 55.5138C171.094 54.7505 170.339 54.2515 169.313 54.0167C168.346 53.7231 166.987 53.4883 165.236 53.3122V50.2299H181.633V77.2658C181.633 80.6122 181.664 83.3422 181.724 85.4558C181.845 87.5694 181.996 89.1546 182.177 90.2114C182.298 90.9746 182.479 91.591 182.721 92.0607C183.023 92.4716 183.445 92.8239 183.989 93.1175C184.532 93.3523 185.227 93.5284 186.073 93.6458C186.978 93.7046 188.126 93.7339 189.515 93.7339V96.8162L174.567 97.873L173.571 87.3051H173.208C170.913 90.9452 168.256 93.6165 165.236 95.3191C162.277 96.963 159.166 97.7849 155.905 97.7849C153.368 97.7849 150.892 97.3152 148.476 96.3759C146.121 95.4365 144.339 94.1743 143.131 92.5891C142.104 91.2974 141.349 89.5069 140.866 87.2171C140.443 84.9275 140.232 81.9626 140.232 78.3226V64.3203C140.232 61.9131 140.172 60.0344 140.051 58.6841C139.93 57.2751 139.598 56.2183 139.054 55.5138C138.571 54.7505 137.816 54.2515 136.789 54.0167C135.823 53.7231 134.464 53.4883 132.713 53.3122V50.2299H149.11V74.2716C149.11 80.671 149.865 85.309 151.375 88.1859C152.945 91.0626 155.422 92.501 158.804 92.501C164.119 92.501 168.256 89.1252 171.215 82.3735C171.517 81.669 171.759 81.0232 171.94 80.4361C172.121 79.849 172.272 79.2033 172.393 78.4987C172.514 77.7942 172.604 77.0016 172.665 76.121C172.725 75.2404 172.755 74.1835 172.755 72.9506V64.3203Z" fill="#F8F8F9"/>
</g>
<g filter="url(#filter4_d)">
<path d="M210.436 83.1666C210.436 85.3976 210.527 87.1882 210.708 88.5385C210.889 89.8888 211.252 90.9456 211.795 91.7089C212.399 92.4721 213.214 93.0005 214.241 93.294C215.328 93.5876 216.748 93.7637 218.499 93.8224V96.9046H193.495V93.8224C195.307 93.7637 196.756 93.5876 197.844 93.294C198.931 92.9417 199.776 92.4134 200.38 91.7089C201.045 91.0044 201.467 90.0356 201.649 88.8028C201.89 87.5111 202.011 85.8379 202.011 83.783V45.827C202.011 42.6567 201.951 40.0148 201.83 37.9012C201.769 35.7289 201.649 34.2612 201.467 33.4979C201.165 32.1476 200.441 31.2376 199.293 30.7679C198.206 30.2982 196.213 30.0634 193.314 30.0634V27.0692L210.436 23.8108V83.1666Z" fill="#F8F8F9"/>
</g>
<g filter="url(#filter5_d)">
<path d="M237.996 78.4991C237.996 80.7301 238.328 82.7849 238.993 84.6637C239.657 86.4836 240.563 88.0688 241.711 89.4191C242.919 90.7107 244.338 91.7383 245.968 92.5014C247.66 93.2647 249.471 93.6462 251.404 93.6462C253.518 93.6462 255.42 93.1766 257.112 92.2372C258.863 91.2978 260.343 89.9768 261.551 88.2743C262.819 86.513 263.785 84.4288 264.45 82.0217C265.174 79.5559 265.537 76.8259 265.537 73.8317C265.537 70.8374 265.174 68.1074 264.45 65.6416C263.725 63.1171 262.728 60.9742 261.46 59.2129C260.192 57.3929 258.652 55.9838 256.84 54.9858C255.088 53.9877 253.156 53.4886 251.042 53.4886C248.566 53.4886 246.361 54.0757 244.428 55.2499C242.496 56.3655 241.016 57.9506 239.989 60.0055C238.661 62.5887 237.996 66.1406 237.996 70.6614V78.4991ZM237.815 56.4829H238.177C240.11 54.0171 242.224 52.2264 244.519 51.1109C246.874 49.9367 249.592 49.3496 252.672 49.3496C255.934 49.3496 258.954 49.9661 261.732 51.199C264.57 52.4318 267.016 54.1345 269.07 56.3067C271.184 58.479 272.815 61.0623 273.962 64.0564C275.17 66.992 275.774 70.1623 275.774 73.5675C275.774 77.0313 275.17 80.2603 273.962 83.2546C272.754 86.1901 271.093 88.744 268.979 90.9163C266.926 93.0885 264.48 94.7911 261.641 96.024C258.803 97.2569 255.722 97.8734 252.401 97.8734C248.958 97.8734 245.727 97.2569 242.707 96.024C239.748 94.7911 237.302 93.1179 235.369 91.0043L231.111 96.9046H229.118V43.7135C229.118 37.7838 228.725 33.997 227.94 32.3531C227.759 31.9421 227.548 31.6192 227.306 31.3844C227.065 31.0908 226.702 30.856 226.219 30.6799C225.736 30.445 225.071 30.2395 224.226 30.0634C223.38 29.8873 222.233 29.7111 220.783 29.535V27.3334L237.815 23.8108V56.4829Z" fill="#F8F8F9"/>
</g>
<g filter="url(#filter6_d)">
<path d="M327.44 88.7148C322.307 94.7618 315.935 97.7854 308.325 97.7854C304.762 97.7854 301.531 97.2277 298.632 96.1122C295.733 94.938 293.226 93.3234 291.112 91.2686C289.059 89.1551 287.458 86.6599 286.311 83.7831C285.163 80.8476 284.589 77.6186 284.589 74.096C284.589 70.5146 285.193 67.1975 286.401 64.1447C287.609 61.0917 289.3 58.4791 291.475 56.3069C293.709 54.1346 296.337 52.432 299.356 51.1991C302.437 49.9662 305.789 49.3497 309.412 49.3497C315.271 49.3497 319.8 50.9056 323.001 54.0172C326.202 57.0701 327.803 61.4734 327.803 67.2269C327.803 68.0488 327.622 68.5479 327.259 68.7241C326.957 68.9001 326.202 68.9882 324.994 68.9882H295.189C295.068 69.4579 294.978 70.045 294.917 70.7495C294.857 71.3953 294.827 72.1291 294.827 72.9511C294.827 76.004 295.189 78.7928 295.914 81.3173C296.699 83.7831 297.786 85.8967 299.175 87.658C300.625 89.4193 302.316 90.7989 304.248 91.797C306.241 92.7363 308.446 93.206 310.862 93.206C313.398 93.206 315.754 92.6777 317.928 91.6209C320.102 90.5053 322.337 88.7148 324.632 86.2489L327.44 88.7148ZM312.492 64.9372C313.7 64.9372 314.667 64.9079 315.391 64.8492C316.116 64.7904 316.66 64.673 317.022 64.4969C317.384 64.3208 317.626 64.0859 317.747 63.7924C317.868 63.4402 317.928 62.9997 317.928 62.4714C317.928 59.7707 317.022 57.6278 315.21 56.0427C313.459 54.3988 311.043 53.5769 307.963 53.5769C301.44 53.5769 297.393 57.3636 295.823 64.9372H312.492Z" fill="#F8F8F9"/>
</g>
<g filter="url(#filter7_d)">
<path d="M352.106 82.9025C352.106 85.3096 352.166 87.2177 352.287 88.6267C352.408 90.0357 352.71 91.1219 353.193 91.8852C353.737 92.5897 354.491 93.0594 355.458 93.2942C356.424 93.529 357.783 93.7051 359.535 93.8226V96.9049H335.437V93.8226C337.188 93.7639 338.577 93.6171 339.604 93.3822C340.631 93.0886 341.416 92.5897 341.959 91.8852C342.503 91.1806 342.835 90.1825 342.956 88.8909C343.137 87.5406 343.228 85.7499 343.228 83.5189V73.2153C343.228 69.223 343.167 66.1115 343.046 63.8805C342.986 61.6495 342.684 60.0056 342.141 58.9488C341.657 57.892 340.872 57.2756 339.785 57.0995C338.698 56.8646 337.188 56.7472 335.255 56.7472V53.6649L351.109 50.3185L352.378 61.2385H352.74C353.525 59.4772 354.491 57.8627 355.639 56.3949C356.847 54.9272 358.145 53.6943 359.535 52.6962C360.924 51.6394 362.373 50.8175 363.883 50.2304C365.393 49.6433 366.933 49.3497 368.503 49.3497C370.436 49.3497 371.946 49.8194 373.033 50.7588C374.181 51.6394 374.754 52.843 374.754 54.3694C374.754 55.7785 374.301 56.894 373.395 57.7159C372.49 58.4792 371.191 58.8607 369.5 58.8607C368.534 58.8607 367.718 58.7433 367.054 58.5085C366.389 58.2737 365.786 58.0388 365.242 57.804C364.759 57.5104 364.276 57.2462 363.793 57.0114C363.37 56.7766 362.887 56.6591 362.343 56.6591C360.712 56.6591 359.082 57.6865 357.451 59.7414C355.82 61.7375 354.552 64.2914 353.646 67.4031C353.163 69.1056 352.77 71.0431 352.468 73.2153C352.227 75.3289 352.106 77.5599 352.106 79.9083V82.9025Z" fill="#F8F8F9"/>
</g>
<g filter="url(#filter8_d)">
<path d="M395.279 82.9025C395.279 85.3096 395.339 87.2177 395.46 88.6267C395.581 90.0357 395.883 91.1219 396.366 91.8852C396.91 92.5897 397.665 93.0594 398.631 93.2942C399.597 93.529 400.956 93.7051 402.708 93.8226V96.9049H378.61V93.8226C380.361 93.7639 381.75 93.6171 382.777 93.3822C383.804 93.0886 384.589 92.5897 385.133 91.8852C385.676 91.1806 386.008 90.1825 386.129 88.8909C386.31 87.5406 386.401 85.7499 386.401 83.5189V73.2153C386.401 69.223 386.34 66.1115 386.22 63.8805C386.159 61.6495 385.857 60.0056 385.314 58.9488C384.831 57.892 384.045 57.2756 382.958 57.0995C381.871 56.8646 380.361 56.7472 378.429 56.7472V53.6649L394.283 50.3185L395.551 61.2385H395.913C396.698 59.4772 397.665 57.8627 398.812 56.3949C400.02 54.9272 401.319 53.6943 402.708 52.6962C404.097 51.6394 405.546 50.8175 407.056 50.2304C408.566 49.6433 410.106 49.3497 411.677 49.3497C413.609 49.3497 415.119 49.8194 416.206 50.7588C417.354 51.6394 417.928 52.843 417.928 54.3694C417.928 55.7785 417.475 56.894 416.569 57.7159C415.663 58.4792 414.364 58.8607 412.673 58.8607C411.707 58.8607 410.892 58.7433 410.227 58.5085C409.563 58.2737 408.959 58.0388 408.415 57.804C407.932 57.5104 407.449 57.2462 406.966 57.0114C406.543 56.7766 406.06 56.6591 405.516 56.6591C403.886 56.6591 402.255 57.6865 400.624 59.7414C398.994 61.7375 397.725 64.2914 396.819 67.4031C396.336 69.1056 395.943 71.0431 395.641 73.2153C395.4 75.3289 395.279 77.5599 395.279 79.9083V82.9025Z" fill="#F8F8F9"/>
</g>
<g filter="url(#filter9_d)">
<path d="M443.797 110.73C441.019 116.778 436.701 119.801 430.842 119.801C427.037 119.801 425.135 118.421 425.135 115.662C425.135 114.194 425.648 113.108 426.675 112.404C427.762 111.758 429.725 111.2 432.564 110.73C433.832 110.554 434.919 110.29 435.825 109.938C436.731 109.644 437.546 109.233 438.271 108.705C438.996 108.235 439.63 107.619 440.173 106.856C440.777 106.092 441.351 105.153 441.895 104.037L445.066 97.873L427.671 61.1499C426.886 59.506 426.192 58.2144 425.588 57.2751C425.044 56.277 424.44 55.5138 423.776 54.9854C423.172 54.3983 422.477 54.0167 421.692 53.8405C420.907 53.6057 419.911 53.4296 418.703 53.3122V50.2299H442.71V53.3122C438.664 53.3122 436.64 54.2809 436.64 56.2183C436.64 56.9815 436.882 58.1851 437.365 59.829C437.848 61.4728 438.452 63.1461 439.177 64.8486L449.142 88.2739H449.595L457.839 68.4593C458.625 66.5219 459.259 64.9368 459.742 63.7038C460.285 62.4709 460.678 61.4728 460.92 60.7096C461.222 59.8877 461.403 59.2125 461.463 58.6841C461.584 58.1557 461.644 57.6567 461.644 57.187C461.644 55.6605 461.191 54.6331 460.285 54.1047C459.44 53.5763 457.779 53.3122 455.303 53.3122V50.2299H475.233V53.3122C474.086 53.3122 473.12 53.4589 472.334 53.7525C471.549 54.046 470.734 54.7212 469.888 55.778C469.103 56.776 468.197 58.2438 467.171 60.1812C466.204 62.1187 464.996 64.7312 463.547 68.019L443.797 110.73Z" fill="#F8F8F9"/>
</g>
<g filter="url(#filter10_d)">
<path d="M53.5512 106.892H44.3678V109.924H52.881V113.077H44.3678V120.04H39.2465V103.739H53.5512V106.892Z" fill="#F8F8F9"/>
</g>
<g filter="url(#filter11_d)">
<path d="M68.9943 120.04H57.3037V117.15H60.5749V106.629H57.3037V103.739H68.9943V106.629H65.7231V117.15H68.9943V120.04Z" fill="#F8F8F9"/>
</g>
<g filter="url(#filter12_d)">
<path d="M89.9351 106.892H83.7011V120.04H78.553V106.892H72.319V103.739H89.9351V106.892Z" fill="#F8F8F9"/>
</g>
<g filter="url(#filter13_d)">
<path d="M109.749 106.892H103.515V120.04H98.3668V106.892H92.1328V103.739H109.749V106.892Z" fill="#F8F8F9"/>
</g>
<g filter="url(#filter14_d)">
<path d="M128.382 120.04H113.943V103.739H128.382V106.892H119.064V109.705H127.712V112.858H119.064V116.887H128.382V120.04Z" fill="#F8F8F9"/>
</g>
<g filter="url(#filter15_d)">
<path d="M152.674 111.906C152.674 113.424 152.25 114.785 151.401 115.989C150.551 117.186 149.479 118.106 148.183 118.748C147.209 119.23 146.141 119.565 144.979 119.755C143.817 119.945 142.441 120.04 140.85 120.04H133.811V103.739H141.051C142.677 103.739 144.081 103.852 145.26 104.078C146.44 104.297 147.432 104.611 148.237 105.02C149.613 105.706 150.695 106.633 151.481 107.8C152.276 108.961 152.674 110.329 152.674 111.906ZM147.352 111.873C147.352 110.8 147.111 109.884 146.628 109.125C146.154 108.359 145.399 107.76 144.362 107.33C143.835 107.118 143.294 106.976 142.74 106.903C142.195 106.822 141.368 106.782 140.26 106.782H138.959V116.986H140.26C141.484 116.986 142.382 116.942 142.954 116.854C143.526 116.759 144.085 116.591 144.63 116.35C145.569 115.913 146.257 115.329 146.695 114.599C147.133 113.862 147.352 112.953 147.352 111.873Z" fill="#F8F8F9"/>
</g>
<g filter="url(#filter16_d)">
<path d="M186.819 120.04H180.504L174.539 113.515L173.332 114.708V120.04H168.184V103.739H173.332V111.118L180.464 103.739H186.43L178.628 111.282L186.819 120.04Z" fill="#F8F8F9"/>
</g>
<g filter="url(#filter17_d)">
<path d="M201.256 120.04H189.565V117.15H192.836V106.629H189.565V103.739H201.256V106.629H197.984V117.15H201.256V120.04Z" fill="#F8F8F9"/>
</g>
<g filter="url(#filter18_d)">
<path d="M222.306 106.892H216.072V120.04H210.924V106.892H204.69V103.739H222.306V106.892Z" fill="#F8F8F9"/>
</g>
<g filter="url(#filter19_d)">
<path d="M235.524 120.358C234.04 120.358 232.668 120.179 231.408 119.822C230.157 119.464 229.08 118.931 228.177 118.223C227.274 117.515 226.573 116.632 226.072 115.574C225.581 114.516 225.335 113.293 225.335 111.906C225.335 110.615 225.572 109.443 226.045 108.392C226.519 107.341 227.207 106.44 228.11 105.688C228.977 104.966 230.049 104.407 231.327 104.013C232.614 103.619 234.018 103.422 235.537 103.422C236.377 103.422 237.132 103.462 237.803 103.542C238.482 103.615 239.108 103.714 239.68 103.838C240.279 103.977 240.819 104.134 241.302 104.309C241.794 104.477 242.223 104.634 242.589 104.779V108.732H241.999C241.749 108.556 241.431 108.348 241.047 108.108C240.672 107.867 240.243 107.63 239.76 107.396C239.269 107.162 238.737 106.965 238.165 106.805C237.593 106.644 236.981 106.564 236.328 106.564C235.604 106.564 234.916 106.659 234.264 106.849C233.611 107.031 233.008 107.338 232.454 107.768C231.926 108.184 231.497 108.735 231.167 109.421C230.845 110.107 230.684 110.939 230.684 111.917C230.684 112.939 230.858 113.793 231.207 114.479C231.564 115.165 232.011 115.705 232.547 116.099C233.093 116.501 233.7 116.789 234.371 116.964C235.041 117.132 235.702 117.216 236.355 117.216C236.981 117.216 237.597 117.139 238.205 116.986C238.822 116.833 239.389 116.625 239.908 116.362C240.346 116.15 240.752 115.924 241.128 115.683C241.503 115.443 241.811 115.234 242.053 115.059H242.589V118.957C242.088 119.139 241.61 119.311 241.154 119.471C240.699 119.632 240.22 119.771 239.72 119.887C239.068 120.041 238.455 120.157 237.883 120.238C237.311 120.318 236.525 120.358 235.524 120.358Z" fill="#F8F8F9"/>
</g>
<g filter="url(#filter20_d)">
<path d="M265.393 120.04H260.244V112.858H252.643V120.04H247.495V103.739H252.643V109.705H260.244V103.739H265.393V120.04Z" fill="#F8F8F9"/>
</g>
<g filter="url(#filter21_d)">
<path d="M286.037 120.04H271.599V103.739H286.037V106.892H276.72V109.705H285.367V112.858H276.72V116.887H286.037V120.04Z" fill="#F8F8F9"/>
</g>
<g filter="url(#filter22_d)">
<path d="M309.619 120.04H304.658L296.185 108.851V120.04H291.466V103.739H297.62L304.9 113.077V103.739H309.619V120.04Z" fill="#F8F8F9"/>
</g>
<g filter="url(#filter23_d)">
<path d="M331.819 114.917C331.819 116.523 330.983 117.829 329.312 118.836C327.65 119.836 325.388 120.336 322.528 120.336C320.875 120.336 319.431 120.219 318.198 119.986C316.973 119.745 315.825 119.442 314.752 119.077V115.169H315.316C316.379 115.862 317.568 116.395 318.882 116.767C320.204 117.139 321.474 117.326 322.689 117.326C323.002 117.326 323.413 117.304 323.923 117.26C324.432 117.216 324.848 117.143 325.169 117.041C325.563 116.91 325.884 116.745 326.135 116.548C326.394 116.351 326.523 116.059 326.523 115.673C326.523 115.315 326.336 115.008 325.96 114.753C325.594 114.49 325.053 114.289 324.338 114.151C323.587 114.005 322.792 113.87 321.952 113.746C321.121 113.614 320.339 113.45 319.606 113.253C317.925 112.808 316.714 112.206 315.972 111.447C315.24 110.68 314.873 109.732 314.873 108.6C314.873 107.082 315.704 105.845 317.367 104.889C319.038 103.926 321.183 103.444 323.802 103.444C325.116 103.444 326.412 103.55 327.69 103.761C328.977 103.966 330.09 104.225 331.028 104.539V108.294H330.478C329.674 107.768 328.686 107.33 327.516 106.98C326.354 106.622 325.165 106.444 323.949 106.444C323.52 106.444 323.091 106.469 322.662 106.52C322.242 106.564 321.836 106.652 321.442 106.783C321.094 106.892 320.794 107.06 320.544 107.287C320.294 107.506 320.169 107.757 320.169 108.042C320.169 108.473 320.37 108.805 320.772 109.038C321.174 109.264 321.934 109.472 323.051 109.662C323.784 109.786 324.486 109.907 325.156 110.024C325.835 110.14 326.564 110.301 327.341 110.505C328.87 110.914 329.996 111.472 330.72 112.18C331.453 112.881 331.819 113.793 331.819 114.917Z" fill="#F8F8F9"/>
</g>
<g filter="url(#filter24_d)">
<path d="M361.339 120.04H346.94V103.739H352.088V116.887H361.339V120.04Z" fill="#F8F8F9"/>
</g>
<g filter="url(#filter25_d)">
<path d="M381.138 106.892H374.904V120.04H369.756V106.892H363.522V103.739H381.138V106.892Z" fill="#F8F8F9"/>
</g>
<g filter="url(#filter26_d)">
<path d="M404.196 111.906C404.196 113.424 403.772 114.785 402.923 115.989C402.074 117.186 401.001 118.106 399.705 118.748C398.731 119.23 397.663 119.565 396.501 119.755C395.339 119.945 393.963 120.04 392.372 120.04H385.333V103.739H392.573C394.2 103.739 395.603 103.852 396.783 104.078C397.962 104.297 398.955 104.611 399.759 105.02C401.135 105.706 402.217 106.633 403.003 107.8C403.799 108.961 404.196 110.329 404.196 111.906ZM398.874 111.873C398.874 110.8 398.633 109.884 398.15 109.125C397.676 108.359 396.921 107.76 395.884 107.33C395.357 107.118 394.816 106.976 394.262 106.903C393.717 106.822 392.89 106.782 391.782 106.782H390.482V116.986H391.782C393.007 116.986 393.905 116.942 394.477 116.854C395.049 116.759 395.607 116.591 396.153 116.35C397.091 115.913 397.779 115.329 398.217 114.599C398.655 113.862 398.874 112.953 398.874 111.873Z" fill="#F8F8F9"/>
</g>
<defs>
<filter id="filter0_d" x="0.699997" y="0.700012" width="510.6" height="161.042" filterUnits="userSpaceOnUse" color-interpolation-filters="sRGB">
<feFlood flood-opacity="0" result="BackgroundImageFix"/>
<feColorMatrix in="SourceAlpha" type="matrix" values="0 0 0 0 0 0 0 0 0 0 0 0 0 0 0 0 0 0 127 0"/>
<feOffset dy="3"/>
<feGaussianBlur stdDeviation="1"/>
<feColorMatrix type="matrix" values="0 0 0 0 0 0 0 0 0 0 0 0 0 0 0 0 0 0 0.25 0"/>
<feBlend mode="normal" in2="BackgroundImageFix" result="effect1_dropShadow"/>
<feBlend mode="normal" in="SourceGraphic" in2="effect1_dropShadow" result="shape"/>
</filter>
<filter id="filter1_d" x="11.7591" y="11.6407" width="487.596" height="138.573" filterUnits="userSpaceOnUse" color-interpolation-filters="sRGB">
<feFlood flood-opacity="0" result="BackgroundImageFix"/>
<feColorMatrix in="SourceAlpha" type="matrix" values="0 0 0 0 0 0 0 0 0 0 0 0 0 0 0 0 0 0 127 0"/>
<feOffset dy="3"/>
<feGaussianBlur stdDeviation="1"/>
<feColorMatrix type="matrix" values="0 0 0 0 0 0 0 0 0 0 0 0 0 0 0 0 0 0 0.25 0"/>
<feBlend mode="normal" in2="BackgroundImageFix" result="effect1_dropShadow"/>
<feBlend mode="normal" in="SourceGraphic" in2="effect1_dropShadow" result="shape"/>
</filter>
<filter id="filter2_d" x="35.9238" y="29.0946" width="94.5035" height="73.6906" filterUnits="userSpaceOnUse" color-interpolation-filters="sRGB">
<feFlood flood-opacity="0" result="BackgroundImageFix"/>
<feColorMatrix in="SourceAlpha" type="matrix" values="0 0 0 0 0 0 0 0 0 0 0 0 0 0 0 0 0 0 127 0"/>
<feOffset dy="3"/>
<feGaussianBlur stdDeviation="1"/>
<feColorMatrix type="matrix" values="0 0 0 0 0 0 0 0 0 0 0 0 0 0 0 0 0 0 0.25 0"/>
<feBlend mode="normal" in2="BackgroundImageFix" result="effect1_dropShadow"/>
<feBlend mode="normal" in="SourceGraphic" in2="effect1_dropShadow" result="shape"/>
</filter>
<filter id="filter3_d" x="130.713" y="50.2299" width="60.8025" height="52.6431" filterUnits="userSpaceOnUse" color-interpolation-filters="sRGB">
<feFlood flood-opacity="0" result="BackgroundImageFix"/>
<feColorMatrix in="SourceAlpha" type="matrix" values="0 0 0 0 0 0 0 0 0 0 0 0 0 0 0 0 0 0 127 0"/>
<feOffset dy="3"/>
<feGaussianBlur stdDeviation="1"/>
<feColorMatrix type="matrix" values="0 0 0 0 0 0 0 0 0 0 0 0 0 0 0 0 0 0 0.25 0"/>
<feBlend mode="normal" in2="BackgroundImageFix" result="effect1_dropShadow"/>
<feBlend mode="normal" in="SourceGraphic" in2="effect1_dropShadow" result="shape"/>
</filter>
<filter id="filter4_d" x="191.314" y="23.8108" width="29.1852" height="78.0939" filterUnits="userSpaceOnUse" color-interpolation-filters="sRGB">
<feFlood flood-opacity="0" result="BackgroundImageFix"/>
<feColorMatrix in="SourceAlpha" type="matrix" values="0 0 0 0 0 0 0 0 0 0 0 0 0 0 0 0 0 0 127 0"/>
<feOffset dy="3"/>
<feGaussianBlur stdDeviation="1"/>
<feColorMatrix type="matrix" values="0 0 0 0 0 0 0 0 0 0 0 0 0 0 0 0 0 0 0.25 0"/>
<feBlend mode="normal" in2="BackgroundImageFix" result="effect1_dropShadow"/>
<feBlend mode="normal" in="SourceGraphic" in2="effect1_dropShadow" result="shape"/>
</filter>
<filter id="filter5_d" x="218.783" y="23.8108" width="58.9906" height="79.0626" filterUnits="userSpaceOnUse" color-interpolation-filters="sRGB">
<feFlood flood-opacity="0" result="BackgroundImageFix"/>
<feColorMatrix in="SourceAlpha" type="matrix" values="0 0 0 0 0 0 0 0 0 0 0 0 0 0 0 0 0 0 127 0"/>
<feOffset dy="3"/>
<feGaussianBlur stdDeviation="1"/>
<feColorMatrix type="matrix" values="0 0 0 0 0 0 0 0 0 0 0 0 0 0 0 0 0 0 0.25 0"/>
<feBlend mode="normal" in2="BackgroundImageFix" result="effect1_dropShadow"/>
<feBlend mode="normal" in="SourceGraphic" in2="effect1_dropShadow" result="shape"/>
</filter>
<filter id="filter6_d" x="282.589" y="49.3497" width="47.2134" height="53.4357" filterUnits="userSpaceOnUse" color-interpolation-filters="sRGB">
<feFlood flood-opacity="0" result="BackgroundImageFix"/>
<feColorMatrix in="SourceAlpha" type="matrix" values="0 0 0 0 0 0 0 0 0 0 0 0 0 0 0 0 0 0 127 0"/>
<feOffset dy="3"/>
<feGaussianBlur stdDeviation="1"/>
<feColorMatrix type="matrix" values="0 0 0 0 0 0 0 0 0 0 0 0 0 0 0 0 0 0 0.25 0"/>
<feBlend mode="normal" in2="BackgroundImageFix" result="effect1_dropShadow"/>
<feBlend mode="normal" in="SourceGraphic" in2="effect1_dropShadow" result="shape"/>
</filter>
<filter id="filter7_d" x="333.255" y="49.3497" width="43.499" height="52.5551" filterUnits="userSpaceOnUse" color-interpolation-filters="sRGB">
<feFlood flood-opacity="0" result="BackgroundImageFix"/>
<feColorMatrix in="SourceAlpha" type="matrix" values="0 0 0 0 0 0 0 0 0 0 0 0 0 0 0 0 0 0 127 0"/>
<feOffset dy="3"/>
<feGaussianBlur stdDeviation="1"/>
<feColorMatrix type="matrix" values="0 0 0 0 0 0 0 0 0 0 0 0 0 0 0 0 0 0 0.25 0"/>
<feBlend mode="normal" in2="BackgroundImageFix" result="effect1_dropShadow"/>
<feBlend mode="normal" in="SourceGraphic" in2="effect1_dropShadow" result="shape"/>
</filter>
<filter id="filter8_d" x="376.429" y="49.3497" width="43.4991" height="52.5551" filterUnits="userSpaceOnUse" color-interpolation-filters="sRGB">
<feFlood flood-opacity="0" result="BackgroundImageFix"/>
<feColorMatrix in="SourceAlpha" type="matrix" values="0 0 0 0 0 0 0 0 0 0 0 0 0 0 0 0 0 0 127 0"/>
<feOffset dy="3"/>
<feGaussianBlur stdDeviation="1"/>
<feColorMatrix type="matrix" values="0 0 0 0 0 0 0 0 0 0 0 0 0 0 0 0 0 0 0.25 0"/>
<feBlend mode="normal" in2="BackgroundImageFix" result="effect1_dropShadow"/>
<feBlend mode="normal" in="SourceGraphic" in2="effect1_dropShadow" result="shape"/>
</filter>
<filter id="filter9_d" x="416.703" y="50.2299" width="60.5307" height="74.5712" filterUnits="userSpaceOnUse" color-interpolation-filters="sRGB">
<feFlood flood-opacity="0" result="BackgroundImageFix"/>
<feColorMatrix in="SourceAlpha" type="matrix" values="0 0 0 0 0 0 0 0 0 0 0 0 0 0 0 0 0 0 127 0"/>
<feOffset dy="3"/>
<feGaussianBlur stdDeviation="1"/>
<feColorMatrix type="matrix" values="0 0 0 0 0 0 0 0 0 0 0 0 0 0 0 0 0 0 0.25 0"/>
<feBlend mode="normal" in2="BackgroundImageFix" result="effect1_dropShadow"/>
<feBlend mode="normal" in="SourceGraphic" in2="effect1_dropShadow" result="shape"/>
</filter>
<filter id="filter10_d" x="37.2465" y="103.739" width="18.3047" height="21.3011" filterUnits="userSpaceOnUse" color-interpolation-filters="sRGB">
<feFlood flood-opacity="0" result="BackgroundImageFix"/>
<feColorMatrix in="SourceAlpha" type="matrix" values="0 0 0 0 0 0 0 0 0 0 0 0 0 0 0 0 0 0 127 0"/>
<feOffset dy="3"/>
<feGaussianBlur stdDeviation="1"/>
<feColorMatrix type="matrix" values="0 0 0 0 0 0 0 0 0 0 0 0 0 0 0 0 0 0 0.25 0"/>
<feBlend mode="normal" in2="BackgroundImageFix" result="effect1_dropShadow"/>
<feBlend mode="normal" in="SourceGraphic" in2="effect1_dropShadow" result="shape"/>
</filter>
<filter id="filter11_d" x="55.3037" y="103.739" width="15.6905" height="21.3011" filterUnits="userSpaceOnUse" color-interpolation-filters="sRGB">
<feFlood flood-opacity="0" result="BackgroundImageFix"/>
<feColorMatrix in="SourceAlpha" type="matrix" values="0 0 0 0 0 0 0 0 0 0 0 0 0 0 0 0 0 0 127 0"/>
<feOffset dy="3"/>
<feGaussianBlur stdDeviation="1"/>
<feColorMatrix type="matrix" values="0 0 0 0 0 0 0 0 0 0 0 0 0 0 0 0 0 0 0.25 0"/>
<feBlend mode="normal" in2="BackgroundImageFix" result="effect1_dropShadow"/>
<feBlend mode="normal" in="SourceGraphic" in2="effect1_dropShadow" result="shape"/>
</filter>
<filter id="filter12_d" x="70.319" y="103.739" width="21.6161" height="21.3011" filterUnits="userSpaceOnUse" color-interpolation-filters="sRGB">
<feFlood flood-opacity="0" result="BackgroundImageFix"/>
<feColorMatrix in="SourceAlpha" type="matrix" values="0 0 0 0 0 0 0 0 0 0 0 0 0 0 0 0 0 0 127 0"/>
<feOffset dy="3"/>
<feGaussianBlur stdDeviation="1"/>
<feColorMatrix type="matrix" values="0 0 0 0 0 0 0 0 0 0 0 0 0 0 0 0 0 0 0.25 0"/>
<feBlend mode="normal" in2="BackgroundImageFix" result="effect1_dropShadow"/>
<feBlend mode="normal" in="SourceGraphic" in2="effect1_dropShadow" result="shape"/>
</filter>
<filter id="filter13_d" x="90.1328" y="103.739" width="21.6162" height="21.3011" filterUnits="userSpaceOnUse" color-interpolation-filters="sRGB">
<feFlood flood-opacity="0" result="BackgroundImageFix"/>
<feColorMatrix in="SourceAlpha" type="matrix" values="0 0 0 0 0 0 0 0 0 0 0 0 0 0 0 0 0 0 127 0"/>
<feOffset dy="3"/>
<feGaussianBlur stdDeviation="1"/>
<feColorMatrix type="matrix" values="0 0 0 0 0 0 0 0 0 0 0 0 0 0 0 0 0 0 0.25 0"/>
<feBlend mode="normal" in2="BackgroundImageFix" result="effect1_dropShadow"/>
<feBlend mode="normal" in="SourceGraphic" in2="effect1_dropShadow" result="shape"/>
</filter>
<filter id="filter14_d" x="111.943" y="103.739" width="18.4388" height="21.3011" filterUnits="userSpaceOnUse" color-interpolation-filters="sRGB">
<feFlood flood-opacity="0" result="BackgroundImageFix"/>
<feColorMatrix in="SourceAlpha" type="matrix" values="0 0 0 0 0 0 0 0 0 0 0 0 0 0 0 0 0 0 127 0"/>
<feOffset dy="3"/>
<feGaussianBlur stdDeviation="1"/>
<feColorMatrix type="matrix" values="0 0 0 0 0 0 0 0 0 0 0 0 0 0 0 0 0 0 0.25 0"/>
<feBlend mode="normal" in2="BackgroundImageFix" result="effect1_dropShadow"/>
<feBlend mode="normal" in="SourceGraphic" in2="effect1_dropShadow" result="shape"/>
</filter>
<filter id="filter15_d" x="131.811" y="103.739" width="22.8629" height="21.3011" filterUnits="userSpaceOnUse" color-interpolation-filters="sRGB">
<feFlood flood-opacity="0" result="BackgroundImageFix"/>
<feColorMatrix in="SourceAlpha" type="matrix" values="0 0 0 0 0 0 0 0 0 0 0 0 0 0 0 0 0 0 127 0"/>
<feOffset dy="3"/>
<feGaussianBlur stdDeviation="1"/>
<feColorMatrix type="matrix" values="0 0 0 0 0 0 0 0 0 0 0 0 0 0 0 0 0 0 0.25 0"/>
<feBlend mode="normal" in2="BackgroundImageFix" result="effect1_dropShadow"/>
<feBlend mode="normal" in="SourceGraphic" in2="effect1_dropShadow" result="shape"/>
</filter>
<filter id="filter16_d" x="166.184" y="103.739" width="22.635" height="21.3011" filterUnits="userSpaceOnUse" color-interpolation-filters="sRGB">
<feFlood flood-opacity="0" result="BackgroundImageFix"/>
<feColorMatrix in="SourceAlpha" type="matrix" values="0 0 0 0 0 0 0 0 0 0 0 0 0 0 0 0 0 0 127 0"/>
<feOffset dy="3"/>
<feGaussianBlur stdDeviation="1"/>
<feColorMatrix type="matrix" values="0 0 0 0 0 0 0 0 0 0 0 0 0 0 0 0 0 0 0.25 0"/>
<feBlend mode="normal" in2="BackgroundImageFix" result="effect1_dropShadow"/>
<feBlend mode="normal" in="SourceGraphic" in2="effect1_dropShadow" result="shape"/>
</filter>
<filter id="filter17_d" x="187.565" y="103.739" width="15.6904" height="21.3011" filterUnits="userSpaceOnUse" color-interpolation-filters="sRGB">
<feFlood flood-opacity="0" result="BackgroundImageFix"/>
<feColorMatrix in="SourceAlpha" type="matrix" values="0 0 0 0 0 0 0 0 0 0 0 0 0 0 0 0 0 0 127 0"/>
<feOffset dy="3"/>
<feGaussianBlur stdDeviation="1"/>
<feColorMatrix type="matrix" values="0 0 0 0 0 0 0 0 0 0 0 0 0 0 0 0 0 0 0.25 0"/>
<feBlend mode="normal" in2="BackgroundImageFix" result="effect1_dropShadow"/>
<feBlend mode="normal" in="SourceGraphic" in2="effect1_dropShadow" result="shape"/>
</filter>
<filter id="filter18_d" x="202.69" y="103.739" width="21.6161" height="21.3011" filterUnits="userSpaceOnUse" color-interpolation-filters="sRGB">
<feFlood flood-opacity="0" result="BackgroundImageFix"/>
<feColorMatrix in="SourceAlpha" type="matrix" values="0 0 0 0 0 0 0 0 0 0 0 0 0 0 0 0 0 0 127 0"/>
<feOffset dy="3"/>
<feGaussianBlur stdDeviation="1"/>
<feColorMatrix type="matrix" values="0 0 0 0 0 0 0 0 0 0 0 0 0 0 0 0 0 0 0.25 0"/>
<feBlend mode="normal" in2="BackgroundImageFix" result="effect1_dropShadow"/>
<feBlend mode="normal" in="SourceGraphic" in2="effect1_dropShadow" result="shape"/>
</filter>
<filter id="filter19_d" x="223.335" y="103.422" width="21.2542" height="21.9361" filterUnits="userSpaceOnUse" color-interpolation-filters="sRGB">
<feFlood flood-opacity="0" result="BackgroundImageFix"/>
<feColorMatrix in="SourceAlpha" type="matrix" values="0 0 0 0 0 0 0 0 0 0 0 0 0 0 0 0 0 0 127 0"/>
<feOffset dy="3"/>
<feGaussianBlur stdDeviation="1"/>
<feColorMatrix type="matrix" values="0 0 0 0 0 0 0 0 0 0 0 0 0 0 0 0 0 0 0.25 0"/>
<feBlend mode="normal" in2="BackgroundImageFix" result="effect1_dropShadow"/>
<feBlend mode="normal" in="SourceGraphic" in2="effect1_dropShadow" result="shape"/>
</filter>
<filter id="filter20_d" x="245.495" y="103.739" width="21.8978" height="21.3011" filterUnits="userSpaceOnUse" color-interpolation-filters="sRGB">
<feFlood flood-opacity="0" result="BackgroundImageFix"/>
<feColorMatrix in="SourceAlpha" type="matrix" values="0 0 0 0 0 0 0 0 0 0 0 0 0 0 0 0 0 0 127 0"/>
<feOffset dy="3"/>
<feGaussianBlur stdDeviation="1"/>
<feColorMatrix type="matrix" values="0 0 0 0 0 0 0 0 0 0 0 0 0 0 0 0 0 0 0.25 0"/>
<feBlend mode="normal" in2="BackgroundImageFix" result="effect1_dropShadow"/>
<feBlend mode="normal" in="SourceGraphic" in2="effect1_dropShadow" result="shape"/>
</filter>
<filter id="filter21_d" x="269.599" y="103.739" width="18.4387" height="21.3011" filterUnits="userSpaceOnUse" color-interpolation-filters="sRGB">
<feFlood flood-opacity="0" result="BackgroundImageFix"/>
<feColorMatrix in="SourceAlpha" type="matrix" values="0 0 0 0 0 0 0 0 0 0 0 0 0 0 0 0 0 0 127 0"/>
<feOffset dy="3"/>
<feGaussianBlur stdDeviation="1"/>
<feColorMatrix type="matrix" values="0 0 0 0 0 0 0 0 0 0 0 0 0 0 0 0 0 0 0.25 0"/>
<feBlend mode="normal" in2="BackgroundImageFix" result="effect1_dropShadow"/>
<feBlend mode="normal" in="SourceGraphic" in2="effect1_dropShadow" result="shape"/>
</filter>
<filter id="filter22_d" x="289.466" y="103.739" width="22.1524" height="21.3011" filterUnits="userSpaceOnUse" color-interpolation-filters="sRGB">
<feFlood flood-opacity="0" result="BackgroundImageFix"/>
<feColorMatrix in="SourceAlpha" type="matrix" values="0 0 0 0 0 0 0 0 0 0 0 0 0 0 0 0 0 0 127 0"/>
<feOffset dy="3"/>
<feGaussianBlur stdDeviation="1"/>
<feColorMatrix type="matrix" values="0 0 0 0 0 0 0 0 0 0 0 0 0 0 0 0 0 0 0.25 0"/>
<feBlend mode="normal" in2="BackgroundImageFix" result="effect1_dropShadow"/>
<feBlend mode="normal" in="SourceGraphic" in2="effect1_dropShadow" result="shape"/>
</filter>
<filter id="filter23_d" x="312.752" y="103.444" width="21.0667" height="21.8922" filterUnits="userSpaceOnUse" color-interpolation-filters="sRGB">
<feFlood flood-opacity="0" result="BackgroundImageFix"/>
<feColorMatrix in="SourceAlpha" type="matrix" values="0 0 0 0 0 0 0 0 0 0 0 0 0 0 0 0 0 0 127 0"/>
<feOffset dy="3"/>
<feGaussianBlur stdDeviation="1"/>
<feColorMatrix type="matrix" values="0 0 0 0 0 0 0 0 0 0 0 0 0 0 0 0 0 0 0.25 0"/>
<feBlend mode="normal" in2="BackgroundImageFix" result="effect1_dropShadow"/>
<feBlend mode="normal" in="SourceGraphic" in2="effect1_dropShadow" result="shape"/>
</filter>
<filter id="filter24_d" x="344.94" y="103.739" width="18.3986" height="21.3011" filterUnits="userSpaceOnUse" color-interpolation-filters="sRGB">
<feFlood flood-opacity="0" result="BackgroundImageFix"/>
<feColorMatrix in="SourceAlpha" type="matrix" values="0 0 0 0 0 0 0 0 0 0 0 0 0 0 0 0 0 0 127 0"/>
<feOffset dy="3"/>
<feGaussianBlur stdDeviation="1"/>
<feColorMatrix type="matrix" values="0 0 0 0 0 0 0 0 0 0 0 0 0 0 0 0 0 0 0.25 0"/>
<feBlend mode="normal" in2="BackgroundImageFix" result="effect1_dropShadow"/>
<feBlend mode="normal" in="SourceGraphic" in2="effect1_dropShadow" result="shape"/>
</filter>
<filter id="filter25_d" x="361.522" y="103.739" width="21.6161" height="21.3011" filterUnits="userSpaceOnUse" color-interpolation-filters="sRGB">
<feFlood flood-opacity="0" result="BackgroundImageFix"/>
<feColorMatrix in="SourceAlpha" type="matrix" values="0 0 0 0 0 0 0 0 0 0 0 0 0 0 0 0 0 0 127 0"/>
<feOffset dy="3"/>
<feGaussianBlur stdDeviation="1"/>
<feColorMatrix type="matrix" values="0 0 0 0 0 0 0 0 0 0 0 0 0 0 0 0 0 0 0.25 0"/>
<feBlend mode="normal" in2="BackgroundImageFix" result="effect1_dropShadow"/>
<feBlend mode="normal" in="SourceGraphic" in2="effect1_dropShadow" result="shape"/>
</filter>
<filter id="filter26_d" x="383.333" y="103.739" width="22.863" height="21.3011" filterUnits="userSpaceOnUse" color-interpolation-filters="sRGB">
<feFlood flood-opacity="0" result="BackgroundImageFix"/>
<feColorMatrix in="SourceAlpha" type="matrix" values="0 0 0 0 0 0 0 0 0 0 0 0 0 0 0 0 0 0 127 0"/>
<feOffset dy="3"/>
<feGaussianBlur stdDeviation="1"/>
<feColorMatrix type="matrix" values="0 0 0 0 0 0 0 0 0 0 0 0 0 0 0 0 0 0 0.25 0"/>
<feBlend mode="normal" in2="BackgroundImageFix" result="effect1_dropShadow"/>
<feBlend mode="normal" in="SourceGraphic" in2="effect1_dropShadow" result="shape"/>
</filter>
</defs>
</svg>
