<svg width="508" height="157" viewBox="0 0 508 157" fill="none" xmlns="http://www.w3.org/2000/svg">
<path d="M504 4H4V153.442H504V4Z" stroke="white" stroke-width="6.6"/>
<g filter="url(#filter0_d)">
<path d="M493.737 13.2584H13.3768V143.596H493.737V13.2584Z" stroke="#F8F8F9" stroke-width="3.23544"/>
</g>
<g filter="url(#filter1_d)">
<path d="M81.6738 88.141L105.228 36.0946H125.521V39.4411C123.589 39.4998 122.018 39.7346 120.811 40.1456C119.663 40.5565 118.757 41.2611 118.093 42.2591C117.489 43.1985 117.066 44.5195 116.824 46.222C116.643 47.9247 116.553 50.0969 116.553 52.7389V87.2604C116.553 90.1958 116.673 92.5149 116.915 94.2174C117.157 95.9201 117.61 97.241 118.274 98.1803C118.999 99.1197 119.995 99.7362 121.263 100.03C122.592 100.323 124.313 100.499 126.427 100.558V103.905H97.0748V100.558C99.1887 100.499 100.88 100.323 102.148 100.03C103.477 99.6775 104.504 99.061 105.228 98.1803C105.953 97.2997 106.436 96.0668 106.678 94.4816C106.919 92.8378 107.04 90.6362 107.04 87.8767V47.0147H106.134L79.6808 104.785H77.6877L51.6872 47.0147H51.3248V87.2604C51.3248 90.1958 51.4457 92.5149 51.6872 94.2174C51.9288 95.9201 52.3817 97.241 53.0462 98.1803C53.7709 99.1197 54.7674 99.7362 56.0357 100.03C57.3644 100.323 59.0857 100.499 61.1996 100.558V103.905H35.9238V100.558C38.0377 100.499 39.7288 100.323 40.9971 100.03C42.3258 99.6775 43.3526 99.061 44.0773 98.1803C44.8021 97.2997 45.2852 96.0668 45.5268 94.4816C45.7684 92.8378 45.8892 90.6362 45.8892 87.8767V52.1224C45.8892 49.6566 45.7684 47.6311 45.5268 46.0459C45.3456 44.402 44.9228 43.1104 44.2585 42.1711C43.6545 41.2317 42.7486 40.5859 41.5407 40.2336C40.3327 39.8227 38.7624 39.5585 36.8298 39.4411V36.0946H58.4818L81.3114 88.141H81.6738Z" fill="#F8F8F9"/>
</g>
<g filter="url(#filter2_d)">
<path d="M170.755 71.3203C170.755 68.9131 170.695 67.0344 170.574 65.6841C170.453 64.2751 170.121 63.2183 169.577 62.5138C169.094 61.7505 168.339 61.2515 167.313 61.0167C166.346 60.7231 164.987 60.4883 163.236 60.3122V57.2299H179.633V84.2658C179.633 87.6122 179.664 90.3422 179.724 92.4558C179.845 94.5694 179.996 96.1546 180.177 97.2114C180.298 97.9746 180.479 98.591 180.721 99.0607C181.023 99.4716 181.445 99.8239 181.989 100.117C182.532 100.352 183.227 100.528 184.073 100.646C184.978 100.705 186.126 100.734 187.515 100.734V103.816L172.567 104.873L171.571 94.3051H171.208C168.913 97.9452 166.256 100.616 163.236 102.319C160.277 103.963 157.166 104.785 153.905 104.785C151.368 104.785 148.892 104.315 146.476 103.376C144.121 102.437 142.339 101.174 141.131 99.5891C140.104 98.2974 139.349 96.5069 138.866 94.2171C138.443 91.9275 138.232 88.9626 138.232 85.3226V71.3203C138.232 68.9131 138.172 67.0344 138.051 65.6841C137.93 64.2751 137.598 63.2183 137.054 62.5138C136.571 61.7505 135.816 61.2515 134.789 61.0167C133.823 60.7231 132.464 60.4883 130.713 60.3122V57.2299H147.11V81.2716C147.11 87.671 147.865 92.309 149.375 95.1859C150.945 98.0626 153.422 99.501 156.804 99.501C162.119 99.501 166.256 96.1252 169.215 89.3735C169.517 88.669 169.759 88.0232 169.94 87.4361C170.121 86.849 170.272 86.2033 170.393 85.4987C170.514 84.7942 170.604 84.0016 170.665 83.121C170.725 82.2404 170.755 81.1835 170.755 79.9506V71.3203Z" fill="#F8F8F9"/>
</g>
<g filter="url(#filter3_d)">
<path d="M208.436 90.1666C208.436 92.3976 208.527 94.1882 208.708 95.5385C208.889 96.8888 209.252 97.9456 209.795 98.7089C210.399 99.4721 211.214 100.001 212.241 100.294C213.328 100.588 214.748 100.764 216.499 100.822V103.905H191.495V100.822C193.307 100.764 194.756 100.588 195.844 100.294C196.931 99.9417 197.776 99.4134 198.38 98.7089C199.045 98.0044 199.467 97.0356 199.649 95.8028C199.89 94.5111 200.011 92.8379 200.011 90.783V52.827C200.011 49.6567 199.951 47.0148 199.83 44.9012C199.769 42.7289 199.649 41.2612 199.467 40.4979C199.165 39.1476 198.441 38.2376 197.293 37.7679C196.206 37.2982 194.213 37.0634 191.314 37.0634V34.0692L208.436 30.8108V90.1666Z" fill="#F8F8F9"/>
</g>
<g filter="url(#filter4_d)">
<path d="M235.996 85.4991C235.996 87.7301 236.328 89.7849 236.993 91.6637C237.657 93.4836 238.563 95.0688 239.711 96.4191C240.919 97.7107 242.338 98.7383 243.968 99.5014C245.66 100.265 247.471 100.646 249.404 100.646C251.518 100.646 253.42 100.177 255.112 99.2372C256.863 98.2978 258.343 96.9768 259.551 95.2743C260.819 93.513 261.785 91.4288 262.45 89.0217C263.174 86.5559 263.537 83.8259 263.537 80.8317C263.537 77.8374 263.174 75.1074 262.45 72.6416C261.725 70.1171 260.728 67.9742 259.46 66.2129C258.192 64.3929 256.652 62.9838 254.84 61.9858C253.088 60.9877 251.156 60.4886 249.042 60.4886C246.566 60.4886 244.361 61.0757 242.428 62.2499C240.496 63.3655 239.016 64.9506 237.989 67.0055C236.661 69.5887 235.996 73.1406 235.996 77.6614V85.4991ZM235.815 63.4829H236.177C238.11 61.0171 240.224 59.2264 242.519 58.1109C244.874 56.9367 247.592 56.3496 250.672 56.3496C253.934 56.3496 256.954 56.9661 259.732 58.199C262.57 59.4318 265.016 61.1345 267.07 63.3067C269.184 65.479 270.815 68.0623 271.962 71.0564C273.17 73.992 273.774 77.1623 273.774 80.5675C273.774 84.0313 273.17 87.2603 271.962 90.2546C270.754 93.1901 269.093 95.744 266.979 97.9163C264.926 100.089 262.48 101.791 259.641 103.024C256.803 104.257 253.722 104.873 250.401 104.873C246.958 104.873 243.727 104.257 240.707 103.024C237.748 101.791 235.302 100.118 233.369 98.0043L229.111 103.905H227.118V50.7135C227.118 44.7838 226.725 40.997 225.94 39.3531C225.759 38.9421 225.548 38.6192 225.306 38.3844C225.065 38.0908 224.702 37.856 224.219 37.6799C223.736 37.445 223.071 37.2395 222.226 37.0634C221.38 36.8873 220.233 36.7111 218.783 36.535V34.3334L235.815 30.8108V63.4829Z" fill="#F8F8F9"/>
</g>
<g filter="url(#filter5_d)">
<path d="M325.44 95.7148C320.307 101.762 313.935 104.785 306.325 104.785C302.762 104.785 299.531 104.228 296.632 103.112C293.733 101.938 291.226 100.323 289.112 98.2686C287.059 96.1551 285.458 93.6599 284.311 90.7831C283.163 87.8476 282.589 84.6186 282.589 81.096C282.589 77.5146 283.193 74.1975 284.401 71.1447C285.609 68.0917 287.3 65.4791 289.475 63.3069C291.709 61.1346 294.337 59.432 297.356 58.1991C300.437 56.9662 303.789 56.3497 307.412 56.3497C313.271 56.3497 317.8 57.9056 321.001 61.0172C324.202 64.0701 325.803 68.4734 325.803 74.2269C325.803 75.0488 325.622 75.5479 325.259 75.7241C324.957 75.9001 324.202 75.9882 322.994 75.9882H293.189C293.068 76.4579 292.978 77.045 292.917 77.7495C292.857 78.3953 292.827 79.1291 292.827 79.9511C292.827 83.004 293.189 85.7928 293.914 88.3173C294.699 90.7831 295.786 92.8967 297.175 94.658C298.625 96.4193 300.316 97.7989 302.248 98.797C304.241 99.7363 306.446 100.206 308.862 100.206C311.398 100.206 313.754 99.6777 315.928 98.6209C318.102 97.5053 320.337 95.7148 322.632 93.2489L325.44 95.7148ZM310.492 71.9372C311.7 71.9372 312.667 71.9079 313.391 71.8492C314.116 71.7904 314.66 71.673 315.022 71.4969C315.384 71.3208 315.626 71.0859 315.747 70.7924C315.868 70.4402 315.928 69.9997 315.928 69.4714C315.928 66.7707 315.022 64.6278 313.21 63.0427C311.459 61.3988 309.043 60.5769 305.963 60.5769C299.44 60.5769 295.393 64.3636 293.823 71.9372H310.492Z" fill="#F8F8F9"/>
</g>
<g filter="url(#filter6_d)">
<path d="M350.106 89.9025C350.106 92.3096 350.166 94.2177 350.287 95.6267C350.408 97.0357 350.71 98.1219 351.193 98.8852C351.737 99.5897 352.491 100.059 353.458 100.294C354.424 100.529 355.783 100.705 357.535 100.823V103.905H333.437V100.823C335.188 100.764 336.577 100.617 337.604 100.382C338.631 100.089 339.416 99.5897 339.959 98.8852C340.503 98.1806 340.835 97.1825 340.956 95.8909C341.137 94.5406 341.228 92.7499 341.228 90.5189V80.2153C341.228 76.223 341.167 73.1115 341.046 70.8805C340.986 68.6495 340.684 67.0056 340.141 65.9488C339.657 64.892 338.872 64.2756 337.785 64.0995C336.698 63.8646 335.188 63.7472 333.255 63.7472V60.6649L349.109 57.3185L350.378 68.2385H350.74C351.525 66.4772 352.491 64.8627 353.639 63.3949C354.847 61.9272 356.145 60.6943 357.535 59.6962C358.924 58.6394 360.373 57.8175 361.883 57.2304C363.393 56.6433 364.933 56.3497 366.503 56.3497C368.436 56.3497 369.946 56.8194 371.033 57.7588C372.181 58.6394 372.754 59.843 372.754 61.3694C372.754 62.7785 372.301 63.894 371.395 64.7159C370.49 65.4792 369.191 65.8607 367.5 65.8607C366.534 65.8607 365.718 65.7433 365.054 65.5085C364.389 65.2737 363.786 65.0388 363.242 64.804C362.759 64.5104 362.276 64.2462 361.793 64.0114C361.37 63.7766 360.887 63.6591 360.343 63.6591C358.712 63.6591 357.082 64.6865 355.451 66.7414C353.82 68.7375 352.552 71.2914 351.646 74.4031C351.163 76.1056 350.77 78.0431 350.468 80.2153C350.227 82.3289 350.106 84.5599 350.106 86.9083V89.9025Z" fill="#F8F8F9"/>
</g>
<g filter="url(#filter7_d)">
<path d="M393.279 89.9025C393.279 92.3096 393.339 94.2177 393.46 95.6267C393.581 97.0357 393.883 98.1219 394.366 98.8852C394.91 99.5897 395.665 100.059 396.631 100.294C397.597 100.529 398.956 100.705 400.708 100.823V103.905H376.61V100.823C378.361 100.764 379.75 100.617 380.777 100.382C381.804 100.089 382.589 99.5897 383.133 98.8852C383.676 98.1806 384.008 97.1825 384.129 95.8909C384.31 94.5406 384.401 92.7499 384.401 90.5189V80.2153C384.401 76.223 384.34 73.1115 384.22 70.8805C384.159 68.6495 383.857 67.0056 383.314 65.9488C382.831 64.892 382.045 64.2756 380.958 64.0995C379.871 63.8646 378.361 63.7472 376.429 63.7472V60.6649L392.283 57.3185L393.551 68.2385H393.913C394.698 66.4772 395.665 64.8627 396.812 63.3949C398.02 61.9272 399.319 60.6943 400.708 59.6962C402.097 58.6394 403.546 57.8175 405.056 57.2304C406.566 56.6433 408.106 56.3497 409.677 56.3497C411.609 56.3497 413.119 56.8194 414.206 57.7588C415.354 58.6394 415.928 59.843 415.928 61.3694C415.928 62.7785 415.475 63.894 414.569 64.7159C413.663 65.4792 412.364 65.8607 410.673 65.8607C409.707 65.8607 408.892 65.7433 408.227 65.5085C407.563 65.2737 406.959 65.0388 406.415 64.804C405.932 64.5104 405.449 64.2462 404.966 64.0114C404.543 63.7766 404.06 63.6591 403.516 63.6591C401.886 63.6591 400.255 64.6865 398.624 66.7414C396.994 68.7375 395.725 71.2914 394.819 74.4031C394.336 76.1056 393.943 78.0431 393.641 80.2153C393.4 82.3289 393.279 84.5599 393.279 86.9083V89.9025Z" fill="#F8F8F9"/>
</g>
<g filter="url(#filter8_d)">
<path d="M441.797 117.73C439.019 123.778 434.701 126.801 428.842 126.801C425.037 126.801 423.135 125.421 423.135 122.662C423.135 121.194 423.648 120.108 424.675 119.404C425.762 118.758 427.725 118.2 430.564 117.73C431.832 117.554 432.919 117.29 433.825 116.938C434.731 116.644 435.546 116.233 436.271 115.705C436.996 115.235 437.63 114.619 438.173 113.856C438.777 113.092 439.351 112.153 439.895 111.037L443.066 104.873L425.671 68.1499C424.886 66.506 424.192 65.2144 423.588 64.2751C423.044 63.277 422.44 62.5138 421.776 61.9854C421.172 61.3983 420.477 61.0167 419.692 60.8405C418.907 60.6057 417.911 60.4296 416.703 60.3122V57.2299H440.71V60.3122C436.664 60.3122 434.64 61.2809 434.64 63.2183C434.64 63.9815 434.882 65.1851 435.365 66.829C435.848 68.4728 436.452 70.1461 437.177 71.8486L447.142 95.2739H447.595L455.839 75.4593C456.625 73.5219 457.259 71.9368 457.742 70.7038C458.285 69.4709 458.678 68.4728 458.92 67.7096C459.222 66.8877 459.403 66.2125 459.463 65.6841C459.584 65.1557 459.644 64.6567 459.644 64.187C459.644 62.6605 459.191 61.6331 458.285 61.1047C457.44 60.5763 455.779 60.3122 453.303 60.3122V57.2299H473.233V60.3122C472.086 60.3122 471.12 60.4589 470.334 60.7525C469.549 61.046 468.734 61.7212 467.888 62.778C467.103 63.776 466.197 65.2438 465.171 67.1812C464.204 69.1187 462.996 71.7312 461.547 75.019L441.797 117.73Z" fill="#F8F8F9"/>
</g>
<g filter="url(#filter9_d)">
<path d="M51.5512 113.892H42.3678V116.924H50.8809V120.077H42.3678V127.04H37.2465V110.739H51.5512V113.892Z" fill="#F8F8F9"/>
</g>
<g filter="url(#filter10_d)">
<path d="M66.9942 127.04H55.3037V124.15H58.5749V113.629H55.3037V110.739H66.9942V113.629H63.723V124.15H66.9942V127.04Z" fill="#F8F8F9"/>
</g>
<g filter="url(#filter11_d)">
<path d="M87.9351 113.892H81.7011V127.04H76.553V113.892H70.319V110.739H87.9351V113.892Z" fill="#F8F8F9"/>
</g>
<g filter="url(#filter12_d)">
<path d="M107.749 113.892H101.515V127.04H96.3668V113.892H90.1328V110.739H107.749V113.892Z" fill="#F8F8F9"/>
</g>
<g filter="url(#filter13_d)">
<path d="M126.382 127.04H111.943V110.739H126.382V113.892H117.064V116.705H125.712V119.858H117.064V123.887H126.382V127.04Z" fill="#F8F8F9"/>
</g>
<g filter="url(#filter14_d)">
<path d="M150.674 118.906C150.674 120.424 150.25 121.785 149.401 122.989C148.551 124.186 147.479 125.106 146.183 125.748C145.209 126.23 144.141 126.565 142.979 126.755C141.817 126.945 140.441 127.04 138.85 127.04H131.811V110.739H139.051C140.677 110.739 142.081 110.852 143.26 111.078C144.44 111.297 145.432 111.611 146.237 112.02C147.613 112.706 148.695 113.633 149.481 114.8C150.276 115.961 150.674 117.329 150.674 118.906ZM145.352 118.873C145.352 117.8 145.111 116.884 144.628 116.125C144.154 115.359 143.399 114.76 142.362 114.33C141.835 114.118 141.294 113.976 140.74 113.903C140.195 113.822 139.368 113.782 138.26 113.782H136.959V123.985H138.26C139.484 123.985 140.382 123.942 140.955 123.854C141.527 123.759 142.085 123.591 142.63 123.35C143.569 122.913 144.257 122.329 144.695 121.599C145.133 120.862 145.352 119.953 145.352 118.873Z" fill="#F8F8F9"/>
</g>
<g filter="url(#filter15_d)">
<path d="M184.819 127.04H178.504L172.539 120.515L171.332 121.708V127.04H166.184V110.739H171.332V118.117L178.464 110.739H184.43L176.628 118.282L184.819 127.04Z" fill="#F8F8F9"/>
</g>
<g filter="url(#filter16_d)">
<path d="M199.256 127.04H187.565V124.15H190.836V113.629H187.565V110.739H199.256V113.629H195.984V124.15H199.256V127.04Z" fill="#F8F8F9"/>
</g>
<g filter="url(#filter17_d)">
<path d="M220.306 113.892H214.072V127.04H208.924V113.892H202.69V110.739H220.306V113.892Z" fill="#F8F8F9"/>
</g>
<g filter="url(#filter18_d)">
<path d="M233.524 127.358C232.04 127.358 230.668 127.179 229.408 126.822C228.157 126.464 227.08 125.931 226.177 125.223C225.274 124.515 224.573 123.632 224.072 122.574C223.581 121.516 223.335 120.293 223.335 118.906C223.335 117.615 223.572 116.443 224.045 115.392C224.519 114.341 225.207 113.44 226.11 112.688C226.977 111.966 228.049 111.407 229.327 111.013C230.614 110.619 232.018 110.422 233.537 110.422C234.377 110.422 235.132 110.462 235.803 110.542C236.482 110.615 237.108 110.714 237.68 110.838C238.279 110.977 238.819 111.134 239.302 111.309C239.794 111.477 240.223 111.634 240.589 111.78V115.732H239.999C239.749 115.556 239.431 115.348 239.047 115.108C238.672 114.867 238.243 114.63 237.76 114.396C237.269 114.162 236.737 113.965 236.165 113.805C235.593 113.644 234.981 113.564 234.328 113.564C233.604 113.564 232.916 113.659 232.264 113.849C231.611 114.031 231.008 114.338 230.454 114.768C229.926 115.184 229.497 115.735 229.167 116.421C228.845 117.107 228.684 117.939 228.684 118.917C228.684 119.939 228.858 120.793 229.207 121.479C229.564 122.165 230.011 122.705 230.547 123.099C231.093 123.501 231.7 123.789 232.371 123.964C233.041 124.132 233.702 124.216 234.355 124.216C234.981 124.216 235.597 124.139 236.205 123.986C236.822 123.833 237.389 123.625 237.908 123.362C238.346 123.15 238.752 122.924 239.128 122.683C239.503 122.443 239.811 122.235 240.053 122.059H240.589V125.957C240.088 126.139 239.61 126.311 239.154 126.471C238.699 126.632 238.22 126.771 237.72 126.887C237.068 127.041 236.455 127.157 235.883 127.238C235.311 127.318 234.525 127.358 233.524 127.358Z" fill="#F8F8F9"/>
</g>
<g filter="url(#filter19_d)">
<path d="M263.393 127.04H258.244V119.858H250.643V127.04H245.495V110.739H250.643V116.705H258.244V110.739H263.393V127.04Z" fill="#F8F8F9"/>
</g>
<g filter="url(#filter20_d)">
<path d="M284.037 127.04H269.599V110.739H284.037V113.892H274.72V116.705H283.367V119.858H274.72V123.887H284.037V127.04Z" fill="#F8F8F9"/>
</g>
<g filter="url(#filter21_d)">
<path d="M307.619 127.04H302.658L294.185 115.851V127.04H289.466V110.739H295.62L302.9 120.077V110.739H307.619V127.04Z" fill="#F8F8F9"/>
</g>
<g filter="url(#filter22_d)">
<path d="M329.819 121.917C329.819 123.523 328.983 124.829 327.312 125.836C325.65 126.836 323.388 127.336 320.528 127.336C318.875 127.336 317.431 127.219 316.198 126.986C314.973 126.745 313.825 126.442 312.752 126.077V122.169H313.316C314.379 122.862 315.568 123.395 316.882 123.767C318.204 124.139 319.474 124.326 320.689 124.326C321.002 124.326 321.413 124.304 321.923 124.26C322.432 124.216 322.848 124.143 323.169 124.041C323.563 123.91 323.884 123.745 324.135 123.548C324.394 123.351 324.523 123.059 324.523 122.673C324.523 122.315 324.336 122.008 323.96 121.753C323.594 121.49 323.053 121.289 322.338 121.151C321.587 121.005 320.792 120.87 319.952 120.746C319.121 120.614 318.339 120.45 317.606 120.253C315.925 119.808 314.714 119.206 313.972 118.447C313.24 117.68 312.873 116.732 312.873 115.6C312.873 114.082 313.704 112.845 315.367 111.889C317.038 110.926 319.183 110.444 321.802 110.444C323.116 110.444 324.412 110.55 325.69 110.761C326.977 110.966 328.09 111.225 329.028 111.539V115.294H328.478C327.674 114.768 326.686 114.33 325.516 113.98C324.354 113.622 323.165 113.444 321.949 113.444C321.52 113.444 321.091 113.469 320.662 113.52C320.242 113.564 319.836 113.652 319.442 113.783C319.094 113.892 318.794 114.06 318.544 114.287C318.294 114.506 318.169 114.757 318.169 115.042C318.169 115.473 318.37 115.805 318.772 116.038C319.174 116.264 319.934 116.472 321.051 116.662C321.784 116.786 322.486 116.907 323.156 117.023C323.835 117.14 324.564 117.301 325.341 117.505C326.87 117.914 327.996 118.472 328.72 119.18C329.453 119.881 329.819 120.793 329.819 121.917Z" fill="#F8F8F9"/>
</g>
<g filter="url(#filter23_d)">
<path d="M359.339 127.04H344.94V110.739H350.088V123.887H359.339V127.04Z" fill="#F8F8F9"/>
</g>
<g filter="url(#filter24_d)">
<path d="M379.138 113.892H372.904V127.04H367.756V113.892H361.522V110.739H379.138V113.892Z" fill="#F8F8F9"/>
</g>
<g filter="url(#filter25_d)">
<path d="M402.196 118.906C402.196 120.424 401.772 121.785 400.923 122.989C400.074 124.186 399.001 125.106 397.705 125.748C396.731 126.23 395.663 126.565 394.501 126.755C393.339 126.945 391.963 127.04 390.372 127.04H383.333V110.739H390.573C392.2 110.739 393.603 110.852 394.783 111.078C395.962 111.297 396.955 111.611 397.759 112.02C399.135 112.706 400.217 113.633 401.003 114.8C401.799 115.961 402.196 117.329 402.196 118.906ZM396.874 118.873C396.874 117.8 396.633 116.884 396.15 116.125C395.676 115.359 394.921 114.76 393.884 114.33C393.357 114.118 392.816 113.976 392.262 113.903C391.717 113.822 390.89 113.782 389.782 113.782H388.482V123.985H389.782C391.007 123.985 391.905 123.942 392.477 123.854C393.049 123.759 393.607 123.591 394.153 123.35C395.091 122.913 395.779 122.329 396.217 121.599C396.655 120.862 396.874 119.953 396.874 118.873Z" fill="#F8F8F9"/>
</g>
<defs>
<filter id="filter0_d" x="9.75909" y="11.6407" width="487.596" height="138.573" filterUnits="userSpaceOnUse" color-interpolation-filters="sRGB">
<feFlood flood-opacity="0" result="BackgroundImageFix"/>
<feColorMatrix in="SourceAlpha" type="matrix" values="0 0 0 0 0 0 0 0 0 0 0 0 0 0 0 0 0 0 127 0"/>
<feOffset dy="3"/>
<feGaussianBlur stdDeviation="1"/>
<feColorMatrix type="matrix" values="0 0 0 0 0 0 0 0 0 0 0 0 0 0 0 0 0 0 0.25 0"/>
<feBlend mode="normal" in2="BackgroundImageFix" result="effect1_dropShadow"/>
<feBlend mode="normal" in="SourceGraphic" in2="effect1_dropShadow" result="shape"/>
</filter>
<filter id="filter1_d" x="33.9238" y="36.0946" width="94.5035" height="73.6906" filterUnits="userSpaceOnUse" color-interpolation-filters="sRGB">
<feFlood flood-opacity="0" result="BackgroundImageFix"/>
<feColorMatrix in="SourceAlpha" type="matrix" values="0 0 0 0 0 0 0 0 0 0 0 0 0 0 0 0 0 0 127 0"/>
<feOffset dy="3"/>
<feGaussianBlur stdDeviation="1"/>
<feColorMatrix type="matrix" values="0 0 0 0 0 0 0 0 0 0 0 0 0 0 0 0 0 0 0.25 0"/>
<feBlend mode="normal" in2="BackgroundImageFix" result="effect1_dropShadow"/>
<feBlend mode="normal" in="SourceGraphic" in2="effect1_dropShadow" result="shape"/>
</filter>
<filter id="filter2_d" x="128.713" y="57.2299" width="60.8025" height="52.6431" filterUnits="userSpaceOnUse" color-interpolation-filters="sRGB">
<feFlood flood-opacity="0" result="BackgroundImageFix"/>
<feColorMatrix in="SourceAlpha" type="matrix" values="0 0 0 0 0 0 0 0 0 0 0 0 0 0 0 0 0 0 127 0"/>
<feOffset dy="3"/>
<feGaussianBlur stdDeviation="1"/>
<feColorMatrix type="matrix" values="0 0 0 0 0 0 0 0 0 0 0 0 0 0 0 0 0 0 0.25 0"/>
<feBlend mode="normal" in2="BackgroundImageFix" result="effect1_dropShadow"/>
<feBlend mode="normal" in="SourceGraphic" in2="effect1_dropShadow" result="shape"/>
</filter>
<filter id="filter3_d" x="189.314" y="30.8108" width="29.1852" height="78.0939" filterUnits="userSpaceOnUse" color-interpolation-filters="sRGB">
<feFlood flood-opacity="0" result="BackgroundImageFix"/>
<feColorMatrix in="SourceAlpha" type="matrix" values="0 0 0 0 0 0 0 0 0 0 0 0 0 0 0 0 0 0 127 0"/>
<feOffset dy="3"/>
<feGaussianBlur stdDeviation="1"/>
<feColorMatrix type="matrix" values="0 0 0 0 0 0 0 0 0 0 0 0 0 0 0 0 0 0 0.25 0"/>
<feBlend mode="normal" in2="BackgroundImageFix" result="effect1_dropShadow"/>
<feBlend mode="normal" in="SourceGraphic" in2="effect1_dropShadow" result="shape"/>
</filter>
<filter id="filter4_d" x="216.783" y="30.8108" width="58.9906" height="79.0626" filterUnits="userSpaceOnUse" color-interpolation-filters="sRGB">
<feFlood flood-opacity="0" result="BackgroundImageFix"/>
<feColorMatrix in="SourceAlpha" type="matrix" values="0 0 0 0 0 0 0 0 0 0 0 0 0 0 0 0 0 0 127 0"/>
<feOffset dy="3"/>
<feGaussianBlur stdDeviation="1"/>
<feColorMatrix type="matrix" values="0 0 0 0 0 0 0 0 0 0 0 0 0 0 0 0 0 0 0.25 0"/>
<feBlend mode="normal" in2="BackgroundImageFix" result="effect1_dropShadow"/>
<feBlend mode="normal" in="SourceGraphic" in2="effect1_dropShadow" result="shape"/>
</filter>
<filter id="filter5_d" x="280.589" y="56.3497" width="47.2134" height="53.4357" filterUnits="userSpaceOnUse" color-interpolation-filters="sRGB">
<feFlood flood-opacity="0" result="BackgroundImageFix"/>
<feColorMatrix in="SourceAlpha" type="matrix" values="0 0 0 0 0 0 0 0 0 0 0 0 0 0 0 0 0 0 127 0"/>
<feOffset dy="3"/>
<feGaussianBlur stdDeviation="1"/>
<feColorMatrix type="matrix" values="0 0 0 0 0 0 0 0 0 0 0 0 0 0 0 0 0 0 0.25 0"/>
<feBlend mode="normal" in2="BackgroundImageFix" result="effect1_dropShadow"/>
<feBlend mode="normal" in="SourceGraphic" in2="effect1_dropShadow" result="shape"/>
</filter>
<filter id="filter6_d" x="331.255" y="56.3497" width="43.499" height="52.5551" filterUnits="userSpaceOnUse" color-interpolation-filters="sRGB">
<feFlood flood-opacity="0" result="BackgroundImageFix"/>
<feColorMatrix in="SourceAlpha" type="matrix" values="0 0 0 0 0 0 0 0 0 0 0 0 0 0 0 0 0 0 127 0"/>
<feOffset dy="3"/>
<feGaussianBlur stdDeviation="1"/>
<feColorMatrix type="matrix" values="0 0 0 0 0 0 0 0 0 0 0 0 0 0 0 0 0 0 0.25 0"/>
<feBlend mode="normal" in2="BackgroundImageFix" result="effect1_dropShadow"/>
<feBlend mode="normal" in="SourceGraphic" in2="effect1_dropShadow" result="shape"/>
</filter>
<filter id="filter7_d" x="374.429" y="56.3497" width="43.4991" height="52.5551" filterUnits="userSpaceOnUse" color-interpolation-filters="sRGB">
<feFlood flood-opacity="0" result="BackgroundImageFix"/>
<feColorMatrix in="SourceAlpha" type="matrix" values="0 0 0 0 0 0 0 0 0 0 0 0 0 0 0 0 0 0 127 0"/>
<feOffset dy="3"/>
<feGaussianBlur stdDeviation="1"/>
<feColorMatrix type="matrix" values="0 0 0 0 0 0 0 0 0 0 0 0 0 0 0 0 0 0 0.25 0"/>
<feBlend mode="normal" in2="BackgroundImageFix" result="effect1_dropShadow"/>
<feBlend mode="normal" in="SourceGraphic" in2="effect1_dropShadow" result="shape"/>
</filter>
<filter id="filter8_d" x="414.703" y="57.2299" width="60.5307" height="74.5712" filterUnits="userSpaceOnUse" color-interpolation-filters="sRGB">
<feFlood flood-opacity="0" result="BackgroundImageFix"/>
<feColorMatrix in="SourceAlpha" type="matrix" values="0 0 0 0 0 0 0 0 0 0 0 0 0 0 0 0 0 0 127 0"/>
<feOffset dy="3"/>
<feGaussianBlur stdDeviation="1"/>
<feColorMatrix type="matrix" values="0 0 0 0 0 0 0 0 0 0 0 0 0 0 0 0 0 0 0.25 0"/>
<feBlend mode="normal" in2="BackgroundImageFix" result="effect1_dropShadow"/>
<feBlend mode="normal" in="SourceGraphic" in2="effect1_dropShadow" result="shape"/>
</filter>
<filter id="filter9_d" x="35.2465" y="110.739" width="18.3047" height="21.3011" filterUnits="userSpaceOnUse" color-interpolation-filters="sRGB">
<feFlood flood-opacity="0" result="BackgroundImageFix"/>
<feColorMatrix in="SourceAlpha" type="matrix" values="0 0 0 0 0 0 0 0 0 0 0 0 0 0 0 0 0 0 127 0"/>
<feOffset dy="3"/>
<feGaussianBlur stdDeviation="1"/>
<feColorMatrix type="matrix" values="0 0 0 0 0 0 0 0 0 0 0 0 0 0 0 0 0 0 0.25 0"/>
<feBlend mode="normal" in2="BackgroundImageFix" result="effect1_dropShadow"/>
<feBlend mode="normal" in="SourceGraphic" in2="effect1_dropShadow" result="shape"/>
</filter>
<filter id="filter10_d" x="53.3037" y="110.739" width="15.6905" height="21.3011" filterUnits="userSpaceOnUse" color-interpolation-filters="sRGB">
<feFlood flood-opacity="0" result="BackgroundImageFix"/>
<feColorMatrix in="SourceAlpha" type="matrix" values="0 0 0 0 0 0 0 0 0 0 0 0 0 0 0 0 0 0 127 0"/>
<feOffset dy="3"/>
<feGaussianBlur stdDeviation="1"/>
<feColorMatrix type="matrix" values="0 0 0 0 0 0 0 0 0 0 0 0 0 0 0 0 0 0 0.25 0"/>
<feBlend mode="normal" in2="BackgroundImageFix" result="effect1_dropShadow"/>
<feBlend mode="normal" in="SourceGraphic" in2="effect1_dropShadow" result="shape"/>
</filter>
<filter id="filter11_d" x="68.319" y="110.739" width="21.6161" height="21.3011" filterUnits="userSpaceOnUse" color-interpolation-filters="sRGB">
<feFlood flood-opacity="0" result="BackgroundImageFix"/>
<feColorMatrix in="SourceAlpha" type="matrix" values="0 0 0 0 0 0 0 0 0 0 0 0 0 0 0 0 0 0 127 0"/>
<feOffset dy="3"/>
<feGaussianBlur stdDeviation="1"/>
<feColorMatrix type="matrix" values="0 0 0 0 0 0 0 0 0 0 0 0 0 0 0 0 0 0 0.25 0"/>
<feBlend mode="normal" in2="BackgroundImageFix" result="effect1_dropShadow"/>
<feBlend mode="normal" in="SourceGraphic" in2="effect1_dropShadow" result="shape"/>
</filter>
<filter id="filter12_d" x="88.1328" y="110.739" width="21.6162" height="21.3011" filterUnits="userSpaceOnUse" color-interpolation-filters="sRGB">
<feFlood flood-opacity="0" result="BackgroundImageFix"/>
<feColorMatrix in="SourceAlpha" type="matrix" values="0 0 0 0 0 0 0 0 0 0 0 0 0 0 0 0 0 0 127 0"/>
<feOffset dy="3"/>
<feGaussianBlur stdDeviation="1"/>
<feColorMatrix type="matrix" values="0 0 0 0 0 0 0 0 0 0 0 0 0 0 0 0 0 0 0.25 0"/>
<feBlend mode="normal" in2="BackgroundImageFix" result="effect1_dropShadow"/>
<feBlend mode="normal" in="SourceGraphic" in2="effect1_dropShadow" result="shape"/>
</filter>
<filter id="filter13_d" x="109.943" y="110.739" width="18.4388" height="21.3011" filterUnits="userSpaceOnUse" color-interpolation-filters="sRGB">
<feFlood flood-opacity="0" result="BackgroundImageFix"/>
<feColorMatrix in="SourceAlpha" type="matrix" values="0 0 0 0 0 0 0 0 0 0 0 0 0 0 0 0 0 0 127 0"/>
<feOffset dy="3"/>
<feGaussianBlur stdDeviation="1"/>
<feColorMatrix type="matrix" values="0 0 0 0 0 0 0 0 0 0 0 0 0 0 0 0 0 0 0.25 0"/>
<feBlend mode="normal" in2="BackgroundImageFix" result="effect1_dropShadow"/>
<feBlend mode="normal" in="SourceGraphic" in2="effect1_dropShadow" result="shape"/>
</filter>
<filter id="filter14_d" x="129.811" y="110.739" width="22.8629" height="21.3011" filterUnits="userSpaceOnUse" color-interpolation-filters="sRGB">
<feFlood flood-opacity="0" result="BackgroundImageFix"/>
<feColorMatrix in="SourceAlpha" type="matrix" values="0 0 0 0 0 0 0 0 0 0 0 0 0 0 0 0 0 0 127 0"/>
<feOffset dy="3"/>
<feGaussianBlur stdDeviation="1"/>
<feColorMatrix type="matrix" values="0 0 0 0 0 0 0 0 0 0 0 0 0 0 0 0 0 0 0.25 0"/>
<feBlend mode="normal" in2="BackgroundImageFix" result="effect1_dropShadow"/>
<feBlend mode="normal" in="SourceGraphic" in2="effect1_dropShadow" result="shape"/>
</filter>
<filter id="filter15_d" x="164.184" y="110.739" width="22.635" height="21.3011" filterUnits="userSpaceOnUse" color-interpolation-filters="sRGB">
<feFlood flood-opacity="0" result="BackgroundImageFix"/>
<feColorMatrix in="SourceAlpha" type="matrix" values="0 0 0 0 0 0 0 0 0 0 0 0 0 0 0 0 0 0 127 0"/>
<feOffset dy="3"/>
<feGaussianBlur stdDeviation="1"/>
<feColorMatrix type="matrix" values="0 0 0 0 0 0 0 0 0 0 0 0 0 0 0 0 0 0 0.25 0"/>
<feBlend mode="normal" in2="BackgroundImageFix" result="effect1_dropShadow"/>
<feBlend mode="normal" in="SourceGraphic" in2="effect1_dropShadow" result="shape"/>
</filter>
<filter id="filter16_d" x="185.565" y="110.739" width="15.6904" height="21.3011" filterUnits="userSpaceOnUse" color-interpolation-filters="sRGB">
<feFlood flood-opacity="0" result="BackgroundImageFix"/>
<feColorMatrix in="SourceAlpha" type="matrix" values="0 0 0 0 0 0 0 0 0 0 0 0 0 0 0 0 0 0 127 0"/>
<feOffset dy="3"/>
<feGaussianBlur stdDeviation="1"/>
<feColorMatrix type="matrix" values="0 0 0 0 0 0 0 0 0 0 0 0 0 0 0 0 0 0 0.25 0"/>
<feBlend mode="normal" in2="BackgroundImageFix" result="effect1_dropShadow"/>
<feBlend mode="normal" in="SourceGraphic" in2="effect1_dropShadow" result="shape"/>
</filter>
<filter id="filter17_d" x="200.69" y="110.739" width="21.6161" height="21.3011" filterUnits="userSpaceOnUse" color-interpolation-filters="sRGB">
<feFlood flood-opacity="0" result="BackgroundImageFix"/>
<feColorMatrix in="SourceAlpha" type="matrix" values="0 0 0 0 0 0 0 0 0 0 0 0 0 0 0 0 0 0 127 0"/>
<feOffset dy="3"/>
<feGaussianBlur stdDeviation="1"/>
<feColorMatrix type="matrix" values="0 0 0 0 0 0 0 0 0 0 0 0 0 0 0 0 0 0 0.25 0"/>
<feBlend mode="normal" in2="BackgroundImageFix" result="effect1_dropShadow"/>
<feBlend mode="normal" in="SourceGraphic" in2="effect1_dropShadow" result="shape"/>
</filter>
<filter id="filter18_d" x="221.335" y="110.422" width="21.2542" height="21.9361" filterUnits="userSpaceOnUse" color-interpolation-filters="sRGB">
<feFlood flood-opacity="0" result="BackgroundImageFix"/>
<feColorMatrix in="SourceAlpha" type="matrix" values="0 0 0 0 0 0 0 0 0 0 0 0 0 0 0 0 0 0 127 0"/>
<feOffset dy="3"/>
<feGaussianBlur stdDeviation="1"/>
<feColorMatrix type="matrix" values="0 0 0 0 0 0 0 0 0 0 0 0 0 0 0 0 0 0 0.25 0"/>
<feBlend mode="normal" in2="BackgroundImageFix" result="effect1_dropShadow"/>
<feBlend mode="normal" in="SourceGraphic" in2="effect1_dropShadow" result="shape"/>
</filter>
<filter id="filter19_d" x="243.495" y="110.739" width="21.8978" height="21.3011" filterUnits="userSpaceOnUse" color-interpolation-filters="sRGB">
<feFlood flood-opacity="0" result="BackgroundImageFix"/>
<feColorMatrix in="SourceAlpha" type="matrix" values="0 0 0 0 0 0 0 0 0 0 0 0 0 0 0 0 0 0 127 0"/>
<feOffset dy="3"/>
<feGaussianBlur stdDeviation="1"/>
<feColorMatrix type="matrix" values="0 0 0 0 0 0 0 0 0 0 0 0 0 0 0 0 0 0 0.25 0"/>
<feBlend mode="normal" in2="BackgroundImageFix" result="effect1_dropShadow"/>
<feBlend mode="normal" in="SourceGraphic" in2="effect1_dropShadow" result="shape"/>
</filter>
<filter id="filter20_d" x="267.599" y="110.739" width="18.4387" height="21.3011" filterUnits="userSpaceOnUse" color-interpolation-filters="sRGB">
<feFlood flood-opacity="0" result="BackgroundImageFix"/>
<feColorMatrix in="SourceAlpha" type="matrix" values="0 0 0 0 0 0 0 0 0 0 0 0 0 0 0 0 0 0 127 0"/>
<feOffset dy="3"/>
<feGaussianBlur stdDeviation="1"/>
<feColorMatrix type="matrix" values="0 0 0 0 0 0 0 0 0 0 0 0 0 0 0 0 0 0 0.25 0"/>
<feBlend mode="normal" in2="BackgroundImageFix" result="effect1_dropShadow"/>
<feBlend mode="normal" in="SourceGraphic" in2="effect1_dropShadow" result="shape"/>
</filter>
<filter id="filter21_d" x="287.466" y="110.739" width="22.1524" height="21.3011" filterUnits="userSpaceOnUse" color-interpolation-filters="sRGB">
<feFlood flood-opacity="0" result="BackgroundImageFix"/>
<feColorMatrix in="SourceAlpha" type="matrix" values="0 0 0 0 0 0 0 0 0 0 0 0 0 0 0 0 0 0 127 0"/>
<feOffset dy="3"/>
<feGaussianBlur stdDeviation="1"/>
<feColorMatrix type="matrix" values="0 0 0 0 0 0 0 0 0 0 0 0 0 0 0 0 0 0 0.25 0"/>
<feBlend mode="normal" in2="BackgroundImageFix" result="effect1_dropShadow"/>
<feBlend mode="normal" in="SourceGraphic" in2="effect1_dropShadow" result="shape"/>
</filter>
<filter id="filter22_d" x="310.752" y="110.444" width="21.0667" height="21.8922" filterUnits="userSpaceOnUse" color-interpolation-filters="sRGB">
<feFlood flood-opacity="0" result="BackgroundImageFix"/>
<feColorMatrix in="SourceAlpha" type="matrix" values="0 0 0 0 0 0 0 0 0 0 0 0 0 0 0 0 0 0 127 0"/>
<feOffset dy="3"/>
<feGaussianBlur stdDeviation="1"/>
<feColorMatrix type="matrix" values="0 0 0 0 0 0 0 0 0 0 0 0 0 0 0 0 0 0 0.25 0"/>
<feBlend mode="normal" in2="BackgroundImageFix" result="effect1_dropShadow"/>
<feBlend mode="normal" in="SourceGraphic" in2="effect1_dropShadow" result="shape"/>
</filter>
<filter id="filter23_d" x="342.94" y="110.739" width="18.3986" height="21.3011" filterUnits="userSpaceOnUse" color-interpolation-filters="sRGB">
<feFlood flood-opacity="0" result="BackgroundImageFix"/>
<feColorMatrix in="SourceAlpha" type="matrix" values="0 0 0 0 0 0 0 0 0 0 0 0 0 0 0 0 0 0 127 0"/>
<feOffset dy="3"/>
<feGaussianBlur stdDeviation="1"/>
<feColorMatrix type="matrix" values="0 0 0 0 0 0 0 0 0 0 0 0 0 0 0 0 0 0 0.25 0"/>
<feBlend mode="normal" in2="BackgroundImageFix" result="effect1_dropShadow"/>
<feBlend mode="normal" in="SourceGraphic" in2="effect1_dropShadow" result="shape"/>
</filter>
<filter id="filter24_d" x="359.522" y="110.739" width="21.6161" height="21.3011" filterUnits="userSpaceOnUse" color-interpolation-filters="sRGB">
<feFlood flood-opacity="0" result="BackgroundImageFix"/>
<feColorMatrix in="SourceAlpha" type="matrix" values="0 0 0 0 0 0 0 0 0 0 0 0 0 0 0 0 0 0 127 0"/>
<feOffset dy="3"/>
<feGaussianBlur stdDeviation="1"/>
<feColorMatrix type="matrix" values="0 0 0 0 0 0 0 0 0 0 0 0 0 0 0 0 0 0 0.25 0"/>
<feBlend mode="normal" in2="BackgroundImageFix" result="effect1_dropShadow"/>
<feBlend mode="normal" in="SourceGraphic" in2="effect1_dropShadow" result="shape"/>
</filter>
<filter id="filter25_d" x="381.333" y="110.739" width="22.863" height="21.3011" filterUnits="userSpaceOnUse" color-interpolation-filters="sRGB">
<feFlood flood-opacity="0" result="BackgroundImageFix"/>
<feColorMatrix in="SourceAlpha" type="matrix" values="0 0 0 0 0 0 0 0 0 0 0 0 0 0 0 0 0 0 127 0"/>
<feOffset dy="3"/>
<feGaussianBlur stdDeviation="1"/>
<feColorMatrix type="matrix" values="0 0 0 0 0 0 0 0 0 0 0 0 0 0 0 0 0 0 0.25 0"/>
<feBlend mode="normal" in2="BackgroundImageFix" result="effect1_dropShadow"/>
<feBlend mode="normal" in="SourceGraphic" in2="effect1_dropShadow" result="shape"/>
</filter>
</defs>
</svg>
