<svg width="120" height="107" viewBox="0 0 120 107" fill="none" xmlns="http://www.w3.org/2000/svg">
<g clip-path="url(#clip0)">
<path fill-rule="evenodd" clip-rule="evenodd" d="M80.5 105H38.5L35.5 102.5L36.5 93.5H53V80H10.5L5.5 78L2.5 75V70V8L6.5 2.5L10.5 1.5H110.5L115.5 4L117.5 7V11L118.5 73L117.5 76L115.5 78L110.5 80H67V86V91.5L71 93.5H78.5H83V97L84 102.5L80.5 105ZM15 59H107L109 56.5L108.5 14L105 11H14L11.5 14V57L15 59Z" fill="white" stroke="black"/>
<path d="M110.476 14.1276C110.476 11.5848 108.415 9.5238 105.872 9.5238H14.1277C11.5849 9.5238 9.52393 11.5848 9.52393 14.1276V56.3467C9.52393 58.8914 11.5849 60.9524 14.1277 60.9524H105.871C108.415 60.9524 110.476 58.8914 110.476 56.3486V14.1276ZM106.667 56.3486C106.667 56.7867 106.311 57.1428 105.872 57.1428H14.1277C13.6896 57.1428 13.3334 56.7867 13.3334 56.3486V14.1276C13.3334 13.6895 13.6896 13.3333 14.1277 13.3333H105.871C106.311 13.3333 106.667 13.6895 106.667 14.1276V56.3486Z" fill="#000928"/>
<path d="M60.6501 73.6229C62.3985 73.6229 63.8158 72.2055 63.8158 70.4572C63.8158 68.7088 62.3985 67.2914 60.6501 67.2914C58.9017 67.2914 57.4844 68.7088 57.4844 70.4572C57.4844 72.2055 58.9017 73.6229 60.6501 73.6229Z" fill="#000928"/>
<path d="M109.815 0H11.4838C5.57524 0 0 5.13334 0 11.0419V71.7276C0 77.6381 5.57524 81.9048 11.4838 81.9048H51.72H51.4286V91.4286H38.0286C36.0838 91.4286 34.2857 93.5181 34.2857 95.4629V102.735C34.2857 104.678 36.0838 106.667 38.0286 106.667H83.2705C85.2133 106.667 85.7143 104.678 85.7143 102.735V95.4629C85.7143 93.5181 85.2133 91.4286 83.2705 91.4286H68.5714V81.9048H69.579H109.815C115.724 81.9048 120 77.6381 120 71.7295V11.0438C120 5.13333 115.724 0 109.815 0ZM81.9048 95.2381V102.857H38.0952V95.2381H52.0057C53.9486 95.2381 55.2381 94.1657 55.2381 92.2229V81.9048H64.7619V92.2229C64.7619 94.1657 67.3505 95.2381 69.2933 95.2381H81.9048ZM116.19 70.4762C116.19 74.2857 114.286 78.0952 110.236 78.0952H11.6686C10.7143 78.0952 9.56762 77.9029 8.74286 77.5524C6.26286 76.5048 3.80952 74.4057 3.80952 71.5448V11.4286C3.80952 7.61905 6.02476 5.75619 8.50476 4.70857C9.32952 4.3581 10.7143 3.80952 11.6686 3.80952H110.236C113.333 3.80952 116.19 7.61905 116.19 11.4286V70.4762Z" fill="#000928"/>
</g>
<defs>
<clipPath id="clip0">
<rect width="120" height="106.667" fill="white"/>
</clipPath>
</defs>
</svg>
