<svg width="432" height="168" viewBox="0 0 432 168" fill="none" xmlns="http://www.w3.org/2000/svg">
<rect x="44" y="75" width="100" height="15" rx="2" fill="#888888"/>
<rect x="149" y="75" width="50" height="15" rx="2" fill="#888888"/>
<rect x="204" y="75" width="75" height="15" rx="2" fill="#888888"/>
<rect x="284" y="75" width="50" height="15" rx="2" fill="#888888"/>
<rect x="339" y="75" width="50" height="15" rx="2" fill="#888888"/>
<rect x="136" y="125" width="50" height="15" rx="2" fill="#888888"/>
<rect x="327" y="125" width="75" height="15" rx="2" fill="#888888"/>
<rect x="191" y="125" width="75" height="15" rx="2" fill="#888888"/>
<rect x="31" y="125" width="100" height="15" rx="2" fill="#888888"/>
<rect x="271" y="125" width="50" height="15" rx="2" fill="#888888"/>
<rect x="176" y="150" width="50" height="15" rx="2" fill="#888888"/>
<rect x="231" y="150" width="50" height="15" rx="2" fill="#888888"/>
<rect x="287" y="150" width="75" height="15" rx="2" fill="#888888"/>
<path d="M70 152C70 150.895 70.8954 150 72 150H168C169.105 150 170 150.895 170 152V163C170 164.105 169.105 165 168 165H72C70.8954 165 70 164.105 70 163V152Z" fill="#888888"/>
<rect x="59" y="100" width="100" height="15" rx="2" fill="#888888"/>
<rect x="4" y="100" width="50" height="15" rx="2" fill="#888888"/>
<rect x="164" y="100" width="75" height="15" rx="2" fill="#888888"/>
<rect x="244" y="100" width="50" height="15" rx="2" fill="#888888"/>
<rect x="353" y="100" width="75" height="15" rx="2" fill="#888888"/>
<rect x="299" y="100" width="50" height="15" rx="2" fill="#888888"/>
<path d="M162.349 49.4005L159.632 42L156.916 49.4005H149L155.136 54.3185L152.981 62L159.679 57.5035L166.377 62L164.176 54.3185L170.311 49.4005H162.349Z" stroke="#8F5200"/>
<path d="M190.77 49.4005L188.053 42L185.337 49.4005H177.421L183.557 54.3185L181.402 62L188.1 57.5035L194.798 62L192.597 54.3185L198.733 49.4005H190.77Z" stroke="#8F5200"/>
<path d="M219.191 49.4005L216.474 42L213.758 49.4005H205.842L211.978 54.3185L209.823 62L216.521 57.5035L223.219 62L221.018 54.3185L227.154 49.4005H219.191Z" stroke="#8F5200"/>
<path d="M247.612 49.4005L244.896 42L242.179 49.4005H234.263L240.399 54.3185L238.244 62L244.942 57.5035L251.64 62L249.439 54.3185L255.575 49.4005H247.612Z" stroke="#8F5200"/>
<path d="M276.033 49.4005L273.317 42L270.6 49.4005H262.684L268.82 54.3185L266.666 62L273.363 57.5035L280.061 62L277.86 54.3185L283.996 49.4005H276.033Z" stroke="#8F5200"/>
<rect x="126" y="5" width="75" height="25" rx="2" fill="#000928"/>
<rect x="207" y="5" width="100" height="25" rx="2" fill="#000928"/>
</svg>
