<svg width="120" height="115" viewBox="0 0 120 115" fill="none" xmlns="http://www.w3.org/2000/svg">
<rect x="4" y="45" width="114" height="45" fill="white"/>
<circle cx="61.5" cy="10.5" r="4.5" fill="white"/>
<path d="M61.0002 4C57.2275 4 54.1398 7.08778 54.1398 10.8604C54.1398 11.9769 54.433 13.0563 54.9116 13.9905L19.3659 42.4185H3.37249C3.27274 42.4075 3.17209 42.4075 3.07234 42.4185C2.76252 42.4879 2.48634 42.6625 2.29088 42.9127C2.09541 43.1629 1.99276 43.4732 2.0004 43.7906V90.4416C2.00043 90.8055 2.145 91.1544 2.40231 91.4117C2.65962 91.6691 3.0086 91.8136 3.37249 91.8137H118.628C118.992 91.8136 119.341 91.6691 119.598 91.4117C119.855 91.1544 120 90.8055 120 90.4416V43.7906C120 43.4267 119.855 43.0777 119.598 42.8204C119.341 42.5631 118.992 42.4185 118.628 42.4185H102.635L67.0888 13.9905C67.5674 13.0563 67.8606 11.9769 67.8606 10.8604C67.8606 7.08778 64.7729 4 61.0002 4ZM61.0002 6.74418C63.2898 6.74418 65.1165 8.57084 65.1165 10.8604C65.1165 13.15 63.2898 14.9767 61.0002 14.9767C58.7106 14.9767 56.8839 13.15 56.8839 10.8604C56.8839 8.57084 58.7106 6.74418 61.0002 6.74418ZM56.6267 16.0915C57.8204 17.0951 59.3284 17.7209 61.0002 17.7209C62.672 17.7209 64.18 17.0951 65.3737 16.0915L98.261 42.4185H23.7394L56.6267 16.0915ZM4.74457 45.1627H117.256V89.0695H4.74457V45.1627Z" fill="#000928"/>
</svg>
