<svg width="122" height="83" viewBox="0 0 122 83" fill="none" xmlns="http://www.w3.org/2000/svg">
<path d="M69 4L62 2H18.5L12.5 4.5L8 7.5L5 12L2 17.5V59L3 66.5L6.5 73.5L12 78L20.5 80H81H119.5V59H114.5V74.5H81V33.5V20L78 12L73.5 6.5L69 4Z" fill="white" stroke="black"/>
<path d="M17.0719 41.3277C17.0719 54.6918 27.9445 65.5631 41.3084 65.5631C54.6725 65.5631 65.5438 54.6917 65.5438 41.3277C65.5438 27.9638 54.6725 17.0912 41.3084 17.0912C27.9444 17.0912 17.0719 27.9637 17.0719 41.3277ZM20.2937 41.3277C20.2937 29.74 29.7219 20.313 41.3084 20.313C52.895 20.313 62.322 29.74 62.322 41.3277C62.322 52.9143 52.895 62.3413 41.3084 62.3413C29.7219 62.3413 20.2937 52.9143 20.2937 41.3277Z" fill="#000928" stroke="#000928" stroke-width="0.8"/>
<path d="M113.044 58.7659V73.0178H82.2032V53.6987H89.6983H90.0983V53.2987V29.5045V29.1045H89.6983H82.2032V21.9001C82.2032 10.1551 72.7402 0.6 61.109 0.6H21.5126C9.97494 0.6 0.6 10.1585 0.6 21.9001V60.7578C0.6 72.4073 10.016 81.8884 21.6095 81.8884H21.6095H21.6096H21.6097H21.6097H21.6098H21.6098H21.6099H21.61H21.61H21.6101H21.6102H21.6102H21.6103H21.6104H21.6104H21.6105H21.6106H21.6106H21.6107H21.6107H21.6108H21.6109H21.6109H21.611H21.6111H21.6112H21.6112H21.6113H21.6114H21.6114H21.6115H21.6115H21.6116H21.6117H21.6118H21.6118H21.6119H21.612H21.612H21.6121H21.6122H21.6123H21.6124H21.6124H21.6125H21.6126H21.6127H21.6127H21.6128H21.6128H21.6129H21.613H21.613H21.6131H21.6132H21.6132H21.6133H21.6134H21.6134H21.6135H21.6136H21.6136H21.6137H21.6138H21.6138H21.6139H21.614H21.6141H21.6141H21.6142H21.6143H21.6144H21.6144H21.6145H21.6146H21.6147H21.6148H21.6148H21.6149H21.615H21.6151H21.6152H21.6153H21.6153H21.6154H21.6155H21.6156H21.6157H21.6158H21.6159H21.616H21.6161H21.6162H21.6163H21.6164H21.6165H21.6166H21.6167H21.6168H21.6169H21.617H21.6171H21.6172H21.6173H21.6174H21.6175H21.6176H21.6177H21.6178H21.6179H21.618H21.6182H21.6183H21.6184H21.6185H21.6186H21.6187H21.6187H21.6188H21.6189H21.6189H21.619H21.619H21.6191H21.6192H21.6192H21.6193H21.6193H21.6194H21.6195H21.6195H21.6196H21.6196H21.6197H21.6198H21.6198H21.6199H21.62H21.62H21.6201H21.6202H21.6202H21.6203H21.6204H21.6204H21.6205H21.6206H21.6206H21.6207H21.6208H21.6208H21.6209H21.621H21.621H21.6211H21.6212H21.6212H21.6213H21.6214H21.6215H21.6215H21.6216H21.6218L80.6044 81.8581C80.6045 81.8581 80.6046 81.8581 80.6047 81.8581C80.7075 81.8581 80.8047 81.8456 80.8789 81.8339H119.789C120.676 81.8339 121.4 81.1099 121.4 80.223V58.7659C121.4 57.8643 120.673 57.155 119.789 57.155H114.655C113.771 57.155 113.044 57.8643 113.044 58.7659ZM116.266 73.0178V60.3768H118.178V73.0178H116.266ZM78.9814 21.9001V78.6485L21.5979 78.6666C11.7947 78.6547 3.8218 70.6262 3.8218 60.7578V21.9001C3.8218 11.9173 11.7636 3.8218 21.5126 3.8218H61.109C70.9586 3.8218 78.9814 11.9211 78.9814 21.9001ZM118.178 78.6121H82.2032V76.2395H118.178V78.6121Z" fill="#000928" stroke="#000928" stroke-width="0.8"/>
</svg>
